<?xml version="1.0" encoding="UTF-8"?>
<svg width="36px" height="32px" viewBox="0 0 36 32" version="1.1" xmlns="http://www.w3.org/2000/svg" xmlns:xlink="http://www.w3.org/1999/xlink">
    <title>SpeakerRect</title>
    <g id="SpeakerRect" stroke="none" stroke-width="1" fill="none" fill-rule="evenodd">
        <g id="Group" transform="translate(0.000000, 4.000000)">
            <rect id="Rectangle" fill-opacity="0.8" fill="#059600" x="0" y="0" width="28" height="28" rx="7"></rect>
            <path d="M13.0510864,20.5958252 C13.6278687,20.5958252 14.0508423,20.1651611 14.0508423,19.5960693 L14.0508423,7.8527832 C14.0508423,7.27600098 13.6278687,6.8145752 13.0357056,6.8145752 C12.6434937,6.8145752 12.3666382,6.98376465 11.9436646,7.38366699 L8.72906494,10.390625 C8.68292236,10.4367676 8.62139893,10.4598389 8.55218506,10.4598389 L6.37579346,10.4598389 C5.23760986,10.4598389 4.62237549,11.0904541 4.62237549,12.2824707 L4.62237549,15.1433105 C4.62237549,16.3353271 5.23760986,16.9659424 6.37579346,16.9659424 L8.55218506,16.9659424 C8.62139893,16.9659424 8.67523193,16.9890137 8.72906494,17.0351562 L11.9436646,20.0651855 C12.328186,20.4343262 12.6511841,20.5958252 13.0510864,20.5958252 Z M20.918396,18.9654541 C21.9181519,17.550415 22.5026245,15.6508789 22.5026245,13.6975098 C22.5026245,11.7441406 21.9258423,9.83691406 20.918396,8.42956543 C20.6723022,8.06811523 20.2416382,7.98352051 19.8878784,8.20654297 C19.5187378,8.43725586 19.4649048,8.89868164 19.7417603,9.30627441 C20.5569458,10.5059814 21.026062,12.0671387 21.026062,13.6975098 C21.026062,15.3201904 20.5492554,16.8813477 19.7417603,18.0887451 C19.4725952,18.4963379 19.5187378,18.9500732 19.8878784,19.1884766 C20.2416382,19.4038086 20.6723022,19.3269043 20.918396,18.9654541 Z M17.7960815,16.9274902 C18.4190063,16.0969238 18.788147,14.9202881 18.788147,13.6975098 C18.788147,12.4747314 18.4190063,11.3057861 17.7960815,10.4675293 C17.5576782,10.1291504 17.1270142,10.0522461 16.7963257,10.2752686 C16.4194946,10.5213623 16.3425903,10.9750977 16.6502075,11.4211426 C17.0731812,12.0286865 17.3115845,12.8438721 17.3115845,13.6975098 C17.3115845,14.5511475 17.0654907,15.3586426 16.6502075,15.973877 C16.3502808,16.4199219 16.4194946,16.8736572 16.7963257,17.1274414 C17.1270142,17.3427734 17.5576782,17.2658691 17.7960815,16.9274902 Z" id="􀊧" fill="#FFFFFF" fill-rule="nonzero"></path>
        </g>
    </g>
</svg>