<?xml version="1.0" encoding="UTF-8"?>
<svg width="36px" height="32px" viewBox="0 0 36 32" version="1.1" xmlns="http://www.w3.org/2000/svg" xmlns:xlink="http://www.w3.org/1999/xlink">
    <title>LineRect</title>
    <g id="LineRect" stroke="none" stroke-width="1" fill="none" fill-rule="evenodd">
        <g id="Group" transform="translate(0.000000, 4.000000)">
            <rect id="Rectangle" fill-opacity="0.8" fill="#004B65" x="0" y="0" width="28" height="28" rx="7"></rect>
            <line x1="14" y1="14" x2="2.66875" y2="25.33125" id="Line-3" stroke="#31E056" stroke-width="1.75" stroke-linecap="round"></line>
            <path d="M14,21 C14.526253,21 14.9522673,20.5656325 14.9522673,20.0477327 L14.9522673,14.9522673 L20.0477327,14.9522673 C20.5656325,14.9522673 21,14.526253 21,14 C21,13.473747 20.5656325,13.0477327 20.0477327,13.0477327 L14.9522673,13.0477327 L14.9522673,7.9522673 C14.9522673,7.43436754 14.526253,7 14,7 C13.473747,7 13.0477327,7.43436754 13.0477327,7.9522673 L13.0477327,13.0477327 L7.9522673,13.0477327 C7.43436754,13.0477327 7,13.473747 7,14 C7,14.526253 7.43436754,14.9522673 7.9522673,14.9522673 L13.0477327,14.9522673 L13.0477327,20.0477327 C13.0477327,20.5656325 13.473747,21 14,21 Z" id="􀅼" fill="#FFFFFF" fill-rule="nonzero"></path>
        </g>
    </g>
</svg>