<?xml version="1.0" encoding="UTF-8"?>
<svg width="48px" height="48px" viewBox="0 0 48 48" version="1.1" xmlns="http://www.w3.org/2000/svg" xmlns:xlink="http://www.w3.org/1999/xlink">
    <title>Position</title>
    <defs>
        <path d="M23.4121094,24.015625 L20.4238281,24.015625 L20.4238281,16.5009766 L23.4267578,16.5009766 C25.9609375,16.5009766 27.4257812,17.8486328 27.4257812,20.2509766 C27.4257812,22.6679688 25.9462891,24.015625 23.4121094,24.015625 Z" id="path-1"></path>
    </defs>
    <g id="Position" stroke="none" stroke-width="1" fill="none" fill-rule="evenodd">
        <g id="Group" transform="translate(5.000000, 3.000000)">
            <rect id="Rectangle" fill="#FF0000" opacity="0.5" transform="translate(18.707946, 21.104773) rotate(-330.000000) translate(-18.707946, -21.104773) " x="0.707946345" y="20.2047727" width="36" height="1.8"></rect>
            <path d="M18.8285394,19.0958994 L33.6676541,27.6639657 L36.092423,23.4655699 L38.5181631,32.5185552 L29.4648108,34.9443936 L31.8685253,30.7808118 L17.028507,22.213647 L18.8285394,19.0958994 Z" id="Combined-Shape" stroke="#FFF100" stroke-width="1.8" fill="#FF0000" stroke-linejoin="round"></path>
            <rect id="Rectangle-Copy" fill="#00DB00" opacity="0.5" transform="translate(18.707946, 21.104773) rotate(-270.000000) translate(-18.707946, -21.104773) " x="0.707946345" y="20.2047727" width="36" height="1.8"></rect>
            <path d="M18.6627191,-1.27279221 L25.2907625,5.35525125 L20.5079463,5.35419818 L20.5079463,22.0047727 L16.9079463,22.0047727 L16.9079463,5.3541932 L12.0346876,5.35523922 L18.6627191,-1.27279221 Z" id="Combined-Shape" stroke="#FFF100" stroke-width="1.8" fill="#00DB00" stroke-linejoin="round"></path>
            <rect id="Rectangle-Copy" fill="#0000FF" opacity="0.5" transform="translate(18.707946, 21.104773) rotate(-30.000000) translate(-18.707946, -21.104773) " x="0.707946345" y="20.2047727" width="36" height="1.8"></rect>
            <path d="M18.5873657,19.095921 L20.3873981,22.2136685 L5.54661414,30.780729 L7.9517701,34.944578 L-1.10227038,32.5185552 L1.32365199,23.4648896 L3.74748332,27.6638841 L18.5873657,19.095921 Z" id="Combined-Shape" stroke="#FFF100" stroke-width="1.8" fill="#0000FF" stroke-linejoin="round"></path>
            <circle id="Oval" fill="#3F3F3F" cx="18.7079463" cy="21.1047727" r="3.6"></circle>
            <polygon id="Rectangle" fill="#0000FF" transform="translate(33.557946, 12.554773) rotate(-345.000000) translate(-33.557946, -12.554773) " points="30.4079463 9.40477272 36.7079463 9.40477272 36.7079463 15.7047727 33.5579463 12.5547727"></polygon>
            <polygon id="Rectangle-Copy-5" fill="#FF0000" transform="translate(3.857946, 12.554773) scale(-1, 1) rotate(-345.000000) translate(-3.857946, -12.554773) " points="0.707946345 9.40477272 7.00794634 9.40477272 7.00794634 15.7047727 3.85794634 12.5547727"></polygon>
            <polygon id="Rectangle-Copy-3" fill="#00DB00" transform="translate(18.662719, 37.754773) scale(-1, -1) rotate(-45.000000) translate(-18.662719, -37.754773) " points="15.5127191 34.6047727 21.8127191 34.6047727 21.8127191 40.9047727 18.6627191 37.7547727"></polygon>
        </g>
        <path d="M18.2119141,34.4160156 C19.6035156,34.4160156 20.4238281,33.5664062 20.4238281,32.1162109 L20.4238281,27.4726562 L24.3789062,27.4726562 C28.8320312,27.4726562 31.9228516,24.5722656 31.9228516,20.2363281 C31.9228516,15.8857422 28.9345703,13 24.5986328,13 L18.2119141,13 C16.8203125,13 16,13.8496094 16,15.2998047 L16,32.1162109 C16,33.5664062 16.8203125,34.4160156 18.2119141,34.4160156 Z M23.4121094,24.015625 L20.4238281,24.015625 L20.4238281,16.5009766 L23.4267578,16.5009766 C25.9609375,16.5009766 27.4257812,17.8486328 27.4257812,20.2509766 C27.4257812,22.6679688 25.9462891,24.015625 23.4121094,24.015625 Z" id="P" fill="#000000" fill-rule="nonzero"></path>
        <g id="Path">
            <use fill="#D8D8D8" xlink:href="#path-1"></use>
            <use fill="#FFFFFF" xlink:href="#path-1"></use>
        </g>
    </g>
</svg>