<?xml version="1.0" encoding="UTF-8"?>
<svg width="512px" height="1024px" viewBox="0 0 512 1024" version="1.1" xmlns="http://www.w3.org/2000/svg" xmlns:xlink="http://www.w3.org/1999/xlink">
    <title>Completed</title>
    <g id="Completed" stroke="none" stroke-width="1" fill="none" fill-rule="evenodd">
        <polygon id="Rectangle-Copy-6" stroke="#00AB02" stroke-width="4" stroke-linejoin="round" points="71 496 314.378906 565.115234 314.378906 745.115234 71 676"></polygon>
        <g id="Group" transform="translate(107.054688, 507.000000)" stroke="#00AB02" stroke-linecap="round" stroke-width="4">
            <line x1="0.9453125" y1="8.51585469e-12" x2="0.5" y2="187.642578" id="Path-6"></line>
            <line x1="37.9453125" y1="11" x2="37.5" y2="198.642578" id="Path-6-Copy"></line>
            <line x1="74.9453125" y1="21" x2="74.5" y2="208.642578" id="Path-6-Copy-2"></line>
            <line x1="111.945312" y1="31" x2="111.5" y2="218.642578" id="Path-6-Copy-3"></line>
            <line x1="148.945312" y1="42" x2="148.5" y2="229.642578" id="Path-6-Copy-4"></line>
        </g>
        <polygon id="Rectangle-Copy-6" fill-opacity="0.5" fill="#00AB02" points="99.4814453 504.613281 107.054687 507 107.054687 677.240234 99.4814453 677.240234"></polygon>
        <polygon id="Rectangle-Copy-7" fill-opacity="0.5" fill="#00AB02" points="135.481445 514.613281 143.054687 517 143.054687 687.240234 135.481445 687.240234"></polygon>
        <polygon id="Rectangle-Copy-8" fill-opacity="0.5" fill="#00AB02" points="173.481445 524.613281 181.054687 527 181.054687 697.240234 173.481445 697.240234"></polygon>
        <polygon id="Rectangle-Copy-9" fill-opacity="0.5" fill="#00AB02" points="209.481445 535.613281 217.054687 538 217.054687 708.240234 209.481445 708.240234"></polygon>
        <polygon id="Rectangle-Copy-10" fill-opacity="0.5" fill="#00AB02" points="247.481445 546.613281 255.054687 549 255.054687 719.240234 247.481445 719.240234"></polygon>
        <polygon id="Rectangle-Copy-6" stroke="#00AB02" stroke-width="4" fill="#4DBD48" stroke-linejoin="round" points="71 496 314.378906 565.115234 314.378906 576.984375 71 507.869141"></polygon>
        <polygon id="Rectangle" stroke="#00AB02" stroke-width="4" fill="#4DBD48" stroke-linejoin="round" points="0 -62.5390625 71 -62.5390625 71 677 0 771.507813"></polygon>
        <polygon id="Rectangle" stroke="#00AB02" stroke-width="4" fill="#FFFCF6" stroke-linejoin="round" points="460.17294 477.472265 308.984375 677 71 677 -5 774.507813 -10 1062 522 1062 522 477.472265"></polygon>
        <polygon id="Rectangle-Copy" stroke="#00AB02" stroke-width="4" fill="#4DBD48" stroke-linejoin="round" points="302 509 373 414.492187 373 594.492187 302 689"></polygon>
        <polygon id="Rectangle-Copy-2" stroke="#00AB02" stroke-width="4" fill="#4DBD48" stroke-linejoin="round" points="373 414 444 319.492187 444 499.492187 373 594"></polygon>
        <path d="M444,-43.828125 C453.161059,-53.5233155 458.552039,-53.5233155 460.17294,-43.828125 C461.793842,-34.1329345 461.793842,104.055151 460.17294,370.736132 L460.17294,477.472265 L444,499 L444,-43.828125 Z" id="Rectangle-Copy-5" stroke="#00AB02" stroke-width="4" fill="#4DBD48" stroke-linejoin="round"></path>
        <polygon id="Rectangle-Copy" stroke="#00AB02" stroke-width="4" fill="#FFFCF6" stroke-linejoin="round" points="302 509 373 414.492187 343 414.492187 272 509"></polygon>
        <polygon id="Rectangle-Copy-3" stroke="#00AB02" stroke-width="4" fill="#FFFCF6" stroke-linejoin="round" points="373 414 444 319.492187 414 319.492187 343 414"></polygon>
        <polygon id="Rectangle-Copy" stroke="#00AB02" stroke-width="4" fill="#7FD37B" stroke-linejoin="round" points="302 509 272 509 272 689 302 689"></polygon>
        <polygon id="Rectangle-Copy-4" stroke="#00AB02" stroke-width="4" fill="#7FD37B" stroke-linejoin="round" points="444 -62.5390625 414 -62.5390625 414 319 444 319"></polygon>
        <g id="Group-Copy-6" transform="translate(477.000000, 437.000000)">
            <polygon id="Rectangle-Copy" fill="#0046FF" points="-2.27373675e-13 13.5911458 32 33.5405129 32 77.5911458 -2.27373675e-13 57.6417787"></polygon>
            <polygon id="Rectangle-Copy-3" fill="#2E5DFF" points="38.3554688 -1.42108547e-14 70 19.5405129 32 33.5911458 -2.27373675e-13 13.6417787"></polygon>
            <polygon id="Rectangle-Copy-2" fill="#2100DF" transform="translate(51.000000, 48.565829) scale(-1, 1) translate(-51.000000, -48.565829) " points="32 19.5405129 70 33.5405129 70 77.5911458 32 63.5911458"></polygon>
        </g>
        <g id="Group-Copy-4" transform="translate(244.000000, 630.000000)">
            <polygon id="Rectangle-Copy" fill="#FF0000" points="-2.27373675e-13 13.5911458 32 33.5405129 32 77.5911458 -2.27373675e-13 57.6417787"></polygon>
            <polygon id="Rectangle-Copy-3" fill="#FF2E2E" points="38.3554688 -1.42108547e-14 70 19.5405129 32 33.5911458 -2.27373675e-13 13.6417787"></polygon>
            <polygon id="Rectangle-Copy-2" fill="#DF0000" transform="translate(51.000000, 48.565829) scale(-1, 1) translate(-51.000000, -48.565829) " points="32 19.5405129 70 33.5405129 70 77.5911458 32 63.5911458"></polygon>
        </g>
        <g id="Group-Copy-5" transform="translate(477.000000, 944.000000)">
            <polygon id="Rectangle-Copy" fill="#AD00FF" points="-2.27373675e-13 13.5911458 32 33.5405129 32 77.5911458 -2.27373675e-13 57.6417787"></polygon>
            <polygon id="Rectangle-Copy-3" fill="#C42EFF" points="38.3554688 -1.42108547e-14 70 19.5405129 32 33.5911458 -2.27373675e-13 13.6417787"></polygon>
            <polygon id="Rectangle-Copy-2" fill="#9400DF" transform="translate(51.000000, 48.565829) scale(-1, 1) translate(-51.000000, -48.565829) " points="32 19.5405129 70 33.5405129 70 77.5911458 32 63.5911458"></polygon>
        </g>
        <path d="M461.185539,582.125295 C461.851983,581.945175 462.528343,582.052237 463.083123,582.37094 C463.637902,582.689643 464.0711,583.219987 464.25122,583.886431 C464.351146,584.256159 464.364789,584.643903 464.291096,585.01974 L464.291096,585.01974 L456.006934,627.268965 C455.915307,627.736262 455.694905,628.157234 455.382484,628.492441 C455.070064,628.827649 454.665624,629.077093 454.205922,629.201337 L454.205922,629.201337 L385.711549,647.71333 L393.993066,601.731035 C394.084693,601.263738 394.305095,600.842766 394.617516,600.507559 C394.929936,600.172351 395.334376,599.922907 395.794078,599.798663 L395.794078,599.798663 Z" id="Rectangle" stroke="#525252" stroke-width="3" fill="#4DBD48"></path>
        <path d="M454.416616,629.932878 C455.369854,629.682486 456.384485,629.845602 457.211212,630.382148 L457.211212,630.382148 L494.370976,654.498862 C494.886744,654.833595 495.261066,655.34666 495.422393,655.939986 C495.603526,656.606156 495.497493,657.282678 495.179634,657.837941 C494.861774,658.393205 494.33209,658.827208 493.66592,659.008342 L493.66592,659.008342 L430.936566,676.064603 C428.013917,676.859279 424.890473,676.353202 422.368277,674.676326 L422.368277,674.676326 L385.988305,650.489183 C385.682145,650.285633 385.461402,649.976732 385.367998,649.621145 C385.262764,649.220522 385.329877,648.815172 385.523455,648.483669 C385.717032,648.152166 386.037074,647.89451 386.437697,647.789276 L386.437697,647.789276 Z" id="Rectangle-Copy-11" stroke="#979797" fill="#979797"></path>
        <path d="M454.391986,627.952538 C455.359335,627.691092 456.392349,627.856809 457.22938,628.407715 L457.22938,628.407715 L494.428499,652.890925 C494.938578,653.226643 495.308147,653.737441 495.46747,654.326935 C495.64759,654.993379 495.540528,655.66974 495.221825,656.224519 C494.903123,656.779298 494.372779,657.212496 493.706334,657.392616 L493.706334,657.392616 L430.919864,674.361932 C428.017818,675.146269 424.918775,674.649118 422.407683,672.996402 L422.407683,672.996402 L385.985651,649.024643 C385.679603,648.823213 385.457862,648.516734 385.362268,648.163038 C385.254196,647.763171 385.318433,647.357355 385.509655,647.024487 C385.700877,646.69162 386.019083,646.431701 386.41895,646.323629 L386.41895,646.323629 Z" id="Rectangle" stroke="#979797" fill="#BFBFBF"></path>
        <path d="M421.224005,660.318207 L468.622176,647.58252 C469.955592,647.224237 470.746093,645.852844 470.38781,644.519428 C470.224779,643.912679 469.839273,643.389557 469.308011,643.054171 L454.179586,633.503563 C453.235291,632.907428 452.084786,632.73318 451.006316,633.02296 L399.544837,646.85044 C398.478104,647.137067 397.845703,648.234181 398.13233,649.300914 C398.262755,649.786313 398.57116,650.204811 398.996169,650.47312 L412.497515,658.996548 C415.094324,660.63592 418.258214,661.115102 421.224005,660.318207 Z" id="Rectangle" fill="#A3A3A3"></path>
        <path d="M452.443017,665.855651 L469.934129,661.138805 C471.267219,660.779309 472.056473,659.407198 471.696977,658.074108 C471.527872,657.447031 471.121368,656.910376 470.563525,656.57776 L462.778227,651.935744 C461.848372,651.381314 460.733495,651.227468 459.688235,651.509344 L438.195275,657.305373 C437.128803,657.59297 436.4974,658.690659 436.784997,659.757131 C436.92028,660.258793 437.245484,660.688116 437.691758,660.954209 L443.94554,664.683052 C446.502641,666.207734 449.568553,666.630811 452.443017,665.855651 Z" id="Rectangle-Copy-12" fill="#AEAEAE"></path>
        <rect id="Rectangle" fill="#979797" x="495" y="654" width="1" height="3" rx="0.5"></rect>
        <g id="Group-Copy-2" opacity="0.5" transform="translate(370.000000, 545.000000)">
            <polygon id="Rectangle-Copy" fill="#FF9900" points="-4.22265397e-13 25.2406994 59.4285714 62.289524 59.4285714 144.097842 -4.22265397e-13 107.049018"></polygon>
            <polygon id="Rectangle-Copy-3" fill="#FFB02E" points="71.2315848 -2.63915873e-14 130 36.289524 59.4285714 62.3835565 -4.22265397e-13 25.334732"></polygon>
            <polygon id="Rectangle-Copy-2" fill="#DF7700" transform="translate(94.714286, 90.193683) scale(-1, 1) translate(-94.714286, -90.193683) " points="59.4285714 36.289524 130 62.289524 130 144.097842 59.4285714 118.097842"></polygon>
        </g>
        <line x1="255.5" y1="928.5" x2="93.5" y2="667.5" id="Line-4" stroke="#00AB02" stroke-width="7" stroke-linecap="round"></line>
        <rect id="Rectangle" stroke="#006E01" stroke-width="14" fill-opacity="0.3" fill="#4DBD48" x="87" y="753.5" width="338" height="448" rx="29"></rect>
        <path d="M256.5,866.5 C258.84721,866.5 260.97221,867.451395 262.510408,868.989592 C264.048605,870.52779 265,872.65279 265,875 L265,875 L265,919.999032 L310,920 C312.34721,920 314.47221,920.951395 316.010408,922.489592 C317.548605,924.02779 318.5,926.15279 318.5,928.5 C318.5,930.84721 317.548605,932.97221 316.010408,934.510408 C314.47221,936.048605 312.34721,937 309.999968,937 L309.999968,937 L265,936.999032 L265,982 C265,984.34721 264.048605,986.47221 262.510408,988.010408 C260.97221,989.548605 258.84721,990.5 256.5,990.5 C254.15279,990.5 252.02779,989.548605 250.489592,988.010408 C248.951395,986.47221 248,984.34721 248,982.000032 L248,982.000032 L247.999032,936.999032 L203,937 C200.65279,937 198.52779,936.048605 196.989592,934.510408 C195.451395,932.97221 194.5,930.84721 194.5,928.5 C194.5,926.15279 195.451395,924.02779 196.989592,922.489592 C198.52779,920.951395 200.65279,920 202.999968,920 L202.999968,920 L248,919.999032 L248,875 C248,872.65279 248.951395,870.52779 250.489592,868.989592 C252.02779,867.451395 254.15279,866.5 256.5,866.5 Z" id="Combined-Shape" stroke="#00AB02" stroke-width="3" fill="#FFFFFF"></path>
        <g id="Group-Copy-3" transform="translate(58.000000, 630.000000)">
            <polygon id="Rectangle-Copy" fill="#FF0000" points="-2.27373675e-13 13.5911458 32 33.5405129 32 77.5911458 -2.27373675e-13 57.6417787"></polygon>
            <polygon id="Rectangle-Copy-3" fill="#FF2E2E" points="38.3554688 -1.42108547e-14 70 19.5405129 32 33.5911458 -2.27373675e-13 13.6417787"></polygon>
            <polygon id="Rectangle-Copy-2" fill="#DF0000" transform="translate(51.000000, 48.565829) scale(-1, 1) translate(-51.000000, -48.565829) " points="32 19.5405129 70 33.5405129 70 77.5911458 32 63.5911458"></polygon>
        </g>
    </g>
</svg>