<?xml version="1.0" encoding="UTF-8"?>
<svg width="36px" height="32px" viewBox="0 0 36 32" version="1.1" xmlns="http://www.w3.org/2000/svg" xmlns:xlink="http://www.w3.org/1999/xlink">
    <title>MLOrientationRect</title>
    <g id="MLOrientationRect" stroke="none" stroke-width="1" fill="none" fill-rule="evenodd">
        <g id="Group" transform="translate(0.000000, 4.000000)">
            <rect id="Rectangle" fill-opacity="0.8" fill="#232323" x="0" y="0" width="28" height="28" rx="7"></rect>
            <path d="M18.5705165,23.625 C20.0412072,23.625 21,22.7154255 21,21.3191489 L21,7.56382979 C21,6.15957447 20.0412072,5.25 18.5705165,5.25 L9.42948346,5.25 C7.9587928,5.25 7,6.15957447 7,7.56382979 L7,21.3191489 C7,22.7154255 7.9587928,23.625 9.42948346,23.625 L18.5705165,23.625 Z M18.3430064,22.037234 L9.65699362,22.037234 C8.99071387,22.037234 8.61694719,21.6781915 8.61694719,21.0558511 L8.61694719,7.81914894 C8.61694719,7.19680851 8.99071387,6.84574468 9.65699362,6.84574468 L18.3430064,6.84574468 C19.0092861,6.84574468 19.3830528,7.19680851 19.3830528,7.81914894 L19.3830528,21.0558511 C19.3830528,21.6781915 19.0092861,22.037234 18.3430064,22.037234 Z M16.3929193,21.3670213 C16.6366802,21.3670213 16.8073128,21.2074468 16.8073128,20.9680851 C16.8073128,20.7207447 16.6366802,20.5611702 16.3929193,20.5611702 L11.615206,20.5611702 C11.3795705,20.5611702 11.2008125,20.7207447 11.2008125,20.9680851 C11.2008125,21.2074468 11.3795705,21.3670213 11.615206,21.3670213 L16.3929193,21.3670213 Z" id="􀟠" fill="#FFFFFF" fill-rule="nonzero" transform="translate(14.000000, 14.437500) rotate(-90.000000) translate(-14.000000, -14.437500) "></path>
        </g>
    </g>
</svg>