<?xml version="1.0" encoding="UTF-8"?>
<svg width="320px" height="50px" viewBox="0 0 320 50" version="1.1" xmlns="http://www.w3.org/2000/svg" xmlns:xlink="http://www.w3.org/1999/xlink">
    <title>DistanceFormula2D</title>
    <g id="DistanceFormula2D" stroke="none" stroke-width="1" fill="none" fill-rule="evenodd">
        <polyline id="Path-2" stroke="#000000" stroke-width="2" points="58.578125 26.5 61.4882812 41 71.469838 6.54748872 313 6.54748872"></polyline>
        <path d="M17.2558594,32.328125 C18.0032552,32.328125 18.8463542,31.8678385 19.7851562,30.9472656 C20.3138021,30.4277344 20.7467448,29.9173177 21.0839844,29.4160156 L21.0839844,29.4160156 L21.2753906,29.1289062 L20.9609375,28.828125 C20.46875,29.4205729 20.0813802,29.8580729 19.7988281,30.140625 C19.3157552,30.6054688 18.9420573,30.8378906 18.6777344,30.8378906 C18.5865885,30.8378906 18.4794922,30.8014323 18.3564453,30.7285156 C18.2333984,30.655599 18.171875,30.4960938 18.171875,30.25 C18.171875,30.1497396 18.1832682,30.0380859 18.2060547,29.9150391 C18.2288411,29.7919922 18.2584635,29.6575521 18.2949219,29.5117188 L18.2949219,29.5117188 L20.0859375,23.0039062 L22.7109375,13.1738281 L22.7382812,13.0234375 L22.6152344,12.8867188 C20.7923177,13.2239583 19.3658854,13.4609375 18.3359375,13.5976562 L18.3359375,13.5976562 L18.3359375,14.0488281 C18.5546875,14.030599 18.7301432,14.0169271 18.8623047,14.0078125 C18.9944661,13.9986979 19.1380208,13.9941406 19.2929688,13.9941406 C19.5390625,13.9941406 19.7281901,14.0397135 19.8603516,14.1308594 C19.992513,14.2220052 20.0585938,14.4453125 20.0585938,14.8007812 C20.0585938,14.8919271 20.0517578,14.9990234 20.0380859,15.1220703 C20.0244141,15.2451172 19.9947917,15.3841146 19.9492188,15.5390625 L19.9492188,15.5390625 L18.390625,21.1445312 C18.2903646,20.6614583 18.1536458,20.3196615 17.9804688,20.1191406 C17.6796875,19.7727865 17.1692708,19.5996094 16.4492188,19.5996094 C14.7265625,19.5996094 12.9583333,20.6432292 11.1445312,22.7304688 C9.32161458,24.8268229 8.41015625,26.8684896 8.41015625,28.8554688 C8.41015625,30.03125 8.70638021,30.9016927 9.29882812,31.4667969 C9.89127604,32.031901 10.5839844,32.3144531 11.3769531,32.3144531 C12.3522135,32.3144531 13.2522786,31.9772135 14.0771484,31.3027344 C14.9020182,30.6282552 15.6608073,29.7623698 16.3535156,28.7050781 C16.2441406,29.1972656 16.1621094,29.6529948 16.1074219,30.0722656 C16.0527344,30.4915365 16.0253906,30.796875 16.0253906,30.9882812 C16.0253906,31.5533854 16.2122396,31.9453125 16.5859375,32.1640625 C16.7864583,32.2734375 17.0097656,32.328125 17.2558594,32.328125 Z M12.5253906,30.90625 C11.9147135,30.90625 11.4817708,30.6988932 11.2265625,30.2841797 C10.9713542,29.8694661 10.84375,29.3841146 10.84375,28.828125 C10.84375,27.3515625 11.422526,25.6106771 12.5800781,23.6054688 C13.874349,21.3632812 15.2141927,20.2421875 16.5996094,20.2421875 C17.155599,20.2421875 17.5247396,20.4244792 17.7070312,20.7890625 C17.8893229,21.1536458 17.9804688,21.6139323 17.9804688,22.1699219 C17.9804688,23.9290365 17.4153646,25.7929688 16.2851562,27.7617188 C15.0820312,29.8580729 13.828776,30.90625 12.5253906,30.90625 Z" id="d" fill="#000000" fill-rule="nonzero"></path>
        <path d="M80.1855469,40.1953125 L80.5957031,39.6347656 C78.7727865,38.1946615 77.5058594,36.5266927 76.7949219,34.6308594 C76.1842448,33.0175781 75.8789062,30.9257812 75.8789062,28.3554688 C75.8789062,25.6575521 76.1660156,23.5019531 76.7402344,21.8886719 C77.4602865,19.8925781 78.7682292,18.1835938 80.6640625,16.7617188 L80.6640625,16.7617188 L80.2539062,16.1054688 C75.6419271,18.9492188 73.3359375,22.9459635 73.3359375,28.0957031 C73.3359375,33.2089844 75.6191406,37.2421875 80.1855469,40.1953125 L80.1855469,40.1953125 Z" id="(" fill="#000000" fill-rule="nonzero"></path>
        <path d="M93.4208984,35.3007812 C94.1409505,35.3007812 94.8974609,34.8268229 95.6904297,33.8789062 C96.1097005,33.3776042 96.5152995,32.7714844 96.9072266,32.0605469 L96.9072266,32.0605469 L96.5244141,31.828125 C96.0139974,32.5390625 95.6311849,33.03125 95.3759766,33.3046875 C95.1207682,33.578125 94.8701172,33.7148438 94.6240234,33.7148438 C94.3597005,33.7148438 94.1227214,33.46875 93.9130859,32.9765625 C93.7854818,32.6757812 93.6305339,32.1289062 93.4482422,31.3359375 C93.2477214,30.4973958 93.063151,29.7021484 92.8945312,28.9501953 C92.7259115,28.1982422 92.6416016,27.7539062 92.6416016,27.6171875 C92.6416016,27.453125 93.0061849,26.8401693 93.7353516,25.7783203 C94.4645182,24.7164714 95.0341797,24.1855469 95.4443359,24.1855469 C95.4899089,24.1855469 95.5582682,24.2014974 95.6494141,24.2333984 C95.7405599,24.2652995 95.836263,24.3040365 95.9365234,24.3496094 L95.9365234,24.3496094 L96.2919922,24.5 C96.3922526,24.5455729 96.4879557,24.5797526 96.5791016,24.6025391 C96.6702474,24.6253255 96.7659505,24.6367188 96.8662109,24.6367188 C97.1396484,24.6367188 97.3629557,24.5501302 97.5361328,24.3769531 C97.7093099,24.203776 97.7958984,23.9622396 97.7958984,23.6523438 C97.7958984,23.1966146 97.6227214,22.8867188 97.2763672,22.7226562 C97.0849609,22.6315104 96.8343099,22.5859375 96.5244141,22.5859375 C96.1962891,22.5859375 95.8499349,22.6998698 95.4853516,22.9277344 C95.1207682,23.155599 94.7333984,23.5019531 94.3232422,23.9667969 C93.867513,24.4772135 93.2294922,25.3613281 92.4091797,26.6191406 L92.4091797,26.6191406 L92.1220703,25.0605469 C91.9215495,23.985026 91.6754557,23.264974 91.3837891,22.9003906 C91.1923828,22.672526 90.9052734,22.5585938 90.5224609,22.5585938 C90.2854818,22.5585938 90.000651,22.5996094 89.6679688,22.6816406 C89.3352865,22.7636719 88.9729818,22.8730469 88.5810547,23.0097656 L88.5810547,23.0097656 L87.0634766,23.5292969 L87.1865234,23.953125 C87.4599609,23.8802083 87.7151693,23.8164062 87.9521484,23.7617188 C88.3258464,23.6705729 88.5764974,23.625 88.7041016,23.625 C89.0777995,23.625 89.3330078,23.7275391 89.4697266,23.9326172 C89.6064453,24.1376953 89.7613932,24.5638021 89.9345703,25.2109375 C90.1077474,25.8489583 90.2991536,26.6259766 90.5087891,27.5419922 C90.5986328,27.9345703 90.6692243,28.2488839 90.7205636,28.484933 L90.7654855,28.694894 C90.80399,28.8787667 90.8232422,28.984375 90.8232422,29.0117188 C89.6292318,30.7434896 88.8636068,31.8326823 88.5263672,32.2792969 C88.0159505,32.9628906 87.6992188,33.3616536 87.5761719,33.4755859 C87.453125,33.5895182 87.2776693,33.6464844 87.0498047,33.6464844 C86.976888,33.6464844 86.9108073,33.6396484 86.8515625,33.6259766 C86.7923177,33.6123047 86.7307943,33.5872396 86.6669922,33.5507812 L86.6669922,33.5507812 L86.1884766,33.2910156 C86.0608724,33.218099 85.9423828,33.1656901 85.8330078,33.1337891 C85.7236328,33.101888 85.6142578,33.0859375 85.5048828,33.0859375 C85.2770182,33.0859375 85.0537109,33.1611328 84.8349609,33.3115234 C84.6162109,33.4619141 84.5068359,33.7148438 84.5068359,34.0703125 C84.5068359,34.3346354 84.5660807,34.5625 84.6845703,34.7539062 C84.8942057,35.1184896 85.2906901,35.3007812 85.8740234,35.3007812 C86.3115234,35.3007812 86.6783854,35.1914062 86.9746094,34.9726562 C87.2708333,34.7539062 87.6923828,34.3255208 88.2392578,33.6875 L88.2392578,33.6875 L91.0419922,30.0097656 L91.8896484,33.3867188 C92.0354818,33.9700521 92.1858724,34.3893229 92.3408203,34.6445312 C92.6051432,35.0820312 92.9651693,35.3007812 93.4208984,35.3007812 Z" id="x" fill="#FF0000" fill-rule="nonzero"></path>
        <path d="M106.59375,41 L107.428711,38.5126953 L107.050781,38.3808594 C106.652344,39.125 105.999023,39.4970703 105.09082,39.4970703 C105.073242,39.4970703 105.04541,39.4912109 105.007324,39.4794922 C104.969238,39.4677734 104.941406,39.4619141 104.923828,39.4619141 L104.923828,39.4619141 L101.522461,39.4619141 C103.02832,38.0205078 104.112305,36.8955078 104.774414,36.0869141 C106.086914,34.4931641 106.743164,33.1572266 106.743164,32.0791016 C106.743164,31.1123047 106.447266,30.3168945 105.855469,29.6928711 C105.263672,29.0688477 104.484375,28.7568359 103.517578,28.7568359 C101.367188,28.7568359 100.083984,29.9726562 99.6679688,32.4042969 L99.6679688,32.4042969 L100.02832,32.5185547 C100.327148,31.7861328 100.643555,31.2441406 100.977539,30.8925781 C101.428711,30.4179688 101.991211,30.1806641 102.665039,30.1806641 C103.40918,30.1806641 104.003906,30.4194336 104.449219,30.8969727 C104.894531,31.3745117 105.117188,31.9912109 105.117188,32.7470703 C105.117188,33.8251953 104.651367,34.9794922 103.719727,36.2099609 C103.444336,36.5673828 102.580078,37.5195312 101.126953,39.0664062 L101.126953,39.0664062 L99.5712891,40.71875 L99.5712891,41 L106.59375,41 Z" id="2" fill="#000000" fill-rule="nonzero"></path>
        <path d="M147.075195,41 L147.075195,40.6396484 C146.424805,40.6103516 146,40.5341797 145.800781,40.4111328 C145.507812,40.2236328 145.361328,39.8310547 145.361328,39.2333984 L145.361328,39.2333984 L145.361328,28.7216797 L141.924805,30.4882812 L141.924805,30.8486328 C142.616211,30.5791016 143.035156,30.4443359 143.181641,30.4443359 C143.550781,30.4443359 143.735352,30.7050781 143.735352,31.2265625 L143.735352,31.2265625 L143.735352,39.1367188 C143.735352,39.7460938 143.600586,40.15625 143.331055,40.3671875 C143.102539,40.5488281 142.671875,40.6396484 142.039062,40.6396484 L142.039062,40.6396484 L142.039062,41 L147.075195,41 Z" id="1" fill="#000000" fill-rule="nonzero"></path>
        <path d="M153.800781,40.2226562 C156.088542,38.6458333 157.77474,36.9186198 158.859375,35.0410156 C160.035156,33.0358073 160.623047,30.6979167 160.623047,28.0273438 C160.623047,25.5664062 160.007812,23.2832031 158.777344,21.1777344 C157.574219,19.108724 155.90625,17.4270833 153.773438,16.1328125 L153.773438,16.1328125 L153.376953,16.6933594 C155.272786,18.3522135 156.548828,20.0839844 157.205078,21.8886719 C157.742839,23.3925781 158.011719,25.5299479 158.011719,28.3007812 C158.011719,30.9622396 157.738281,33.0403646 157.191406,34.5351562 C156.535156,36.2942708 155.286458,37.9759115 153.445312,39.5800781 L153.445312,39.5800781 L153.800781,40.2226562 Z" id=")" fill="#000000" fill-rule="nonzero"></path>
        <polygon id="-" fill="#000000" fill-rule="nonzero" points="121.691406 28.7109375 121.691406 26.3183594 114.308594 26.3183594 114.308594 28.7109375"></polygon>
        <path d="M134.420898,35.3007812 C135.140951,35.3007812 135.897461,34.8268229 136.69043,33.8789062 C137.109701,33.3776042 137.515299,32.7714844 137.907227,32.0605469 L137.907227,32.0605469 L137.524414,31.828125 C137.013997,32.5390625 136.631185,33.03125 136.375977,33.3046875 C136.120768,33.578125 135.870117,33.7148438 135.624023,33.7148438 C135.359701,33.7148438 135.122721,33.46875 134.913086,32.9765625 C134.785482,32.6757812 134.630534,32.1289062 134.448242,31.3359375 C134.247721,30.4973958 134.063151,29.7021484 133.894531,28.9501953 C133.725911,28.1982422 133.641602,27.7539062 133.641602,27.6171875 C133.641602,27.453125 134.006185,26.8401693 134.735352,25.7783203 C135.464518,24.7164714 136.03418,24.1855469 136.444336,24.1855469 C136.489909,24.1855469 136.558268,24.2014974 136.649414,24.2333984 C136.74056,24.2652995 136.836263,24.3040365 136.936523,24.3496094 L136.936523,24.3496094 L137.291992,24.5 C137.392253,24.5455729 137.487956,24.5797526 137.579102,24.6025391 C137.670247,24.6253255 137.765951,24.6367188 137.866211,24.6367188 C138.139648,24.6367188 138.362956,24.5501302 138.536133,24.3769531 C138.70931,24.203776 138.795898,23.9622396 138.795898,23.6523438 C138.795898,23.1966146 138.622721,22.8867188 138.276367,22.7226562 C138.084961,22.6315104 137.83431,22.5859375 137.524414,22.5859375 C137.196289,22.5859375 136.849935,22.6998698 136.485352,22.9277344 C136.120768,23.155599 135.733398,23.5019531 135.323242,23.9667969 C134.867513,24.4772135 134.229492,25.3613281 133.40918,26.6191406 L133.40918,26.6191406 L133.12207,25.0605469 C132.921549,23.985026 132.675456,23.264974 132.383789,22.9003906 C132.192383,22.672526 131.905273,22.5585938 131.522461,22.5585938 C131.285482,22.5585938 131.000651,22.5996094 130.667969,22.6816406 C130.335286,22.7636719 129.972982,22.8730469 129.581055,23.0097656 L129.581055,23.0097656 L128.063477,23.5292969 L128.186523,23.953125 C128.459961,23.8802083 128.715169,23.8164062 128.952148,23.7617188 C129.325846,23.6705729 129.576497,23.625 129.704102,23.625 C130.077799,23.625 130.333008,23.7275391 130.469727,23.9326172 C130.606445,24.1376953 130.761393,24.5638021 130.93457,25.2109375 C131.107747,25.8489583 131.299154,26.6259766 131.508789,27.5419922 C131.598633,27.9345703 131.669224,28.2488839 131.720564,28.484933 L131.765485,28.694894 C131.80399,28.8787667 131.823242,28.984375 131.823242,29.0117188 C130.629232,30.7434896 129.863607,31.8326823 129.526367,32.2792969 C129.015951,32.9628906 128.699219,33.3616536 128.576172,33.4755859 C128.453125,33.5895182 128.277669,33.6464844 128.049805,33.6464844 C127.976888,33.6464844 127.910807,33.6396484 127.851562,33.6259766 C127.792318,33.6123047 127.730794,33.5872396 127.666992,33.5507812 L127.666992,33.5507812 L127.188477,33.2910156 C127.060872,33.218099 126.942383,33.1656901 126.833008,33.1337891 C126.723633,33.101888 126.614258,33.0859375 126.504883,33.0859375 C126.277018,33.0859375 126.053711,33.1611328 125.834961,33.3115234 C125.616211,33.4619141 125.506836,33.7148438 125.506836,34.0703125 C125.506836,34.3346354 125.566081,34.5625 125.68457,34.7539062 C125.894206,35.1184896 126.29069,35.3007812 126.874023,35.3007812 C127.311523,35.3007812 127.678385,35.1914062 127.974609,34.9726562 C128.270833,34.7539062 128.692383,34.3255208 129.239258,33.6875 L129.239258,33.6875 L132.041992,30.0097656 L132.889648,33.3867188 C133.035482,33.9700521 133.185872,34.3893229 133.34082,34.6445312 C133.605143,35.0820312 133.965169,35.3007812 134.420898,35.3007812 Z" id="x" fill="#FF0000" fill-rule="nonzero"></path>
        <path d="M172.59375,25 L173.428711,22.5126953 L173.050781,22.3808594 C172.652344,23.125 171.999023,23.4970703 171.09082,23.4970703 C171.073242,23.4970703 171.04541,23.4912109 171.007324,23.4794922 C170.969238,23.4677734 170.941406,23.4619141 170.923828,23.4619141 L170.923828,23.4619141 L167.522461,23.4619141 C169.02832,22.0205078 170.112305,20.8955078 170.774414,20.0869141 C172.086914,18.4931641 172.743164,17.1572266 172.743164,16.0791016 C172.743164,15.1123047 172.447266,14.3168945 171.855469,13.6928711 C171.263672,13.0688477 170.484375,12.7568359 169.517578,12.7568359 C167.367188,12.7568359 166.083984,13.9726562 165.667969,16.4042969 L165.667969,16.4042969 L166.02832,16.5185547 C166.327148,15.7861328 166.643555,15.2441406 166.977539,14.8925781 C167.428711,14.4179688 167.991211,14.1806641 168.665039,14.1806641 C169.40918,14.1806641 170.003906,14.4194336 170.449219,14.8969727 C170.894531,15.3745117 171.117188,15.9912109 171.117188,16.7470703 C171.117188,17.8251953 170.651367,18.9794922 169.719727,20.2099609 C169.444336,20.5673828 168.580078,21.5195312 167.126953,23.0664062 L167.126953,23.0664062 L165.571289,24.71875 L165.571289,25 L172.59375,25 Z" id="2" fill="#000000" fill-rule="nonzero"></path>
        <path d="M215.185547,40.1953125 L215.595703,39.6347656 C213.772786,38.1946615 212.505859,36.5266927 211.794922,34.6308594 C211.184245,33.0175781 210.878906,30.9257812 210.878906,28.3554688 C210.878906,25.6575521 211.166016,23.5019531 211.740234,21.8886719 C212.460286,19.8925781 213.768229,18.1835938 215.664062,16.7617188 L215.664062,16.7617188 L215.253906,16.1054688 C210.641927,18.9492188 208.335938,22.9459635 208.335938,28.0957031 C208.335938,33.2089844 210.619141,37.2421875 215.185547,40.1953125 L215.185547,40.1953125 Z" id="(" fill="#000000" fill-rule="nonzero"></path>
        <path d="M220.983398,40.8105469 C221.94043,40.8105469 223.143555,39.9856771 224.592773,38.3359375 C225.504232,37.2877604 226.593424,35.797526 227.860352,33.8652344 C228.87207,32.3157552 229.788086,30.7161458 230.608398,29.0664062 C231.674805,26.90625 232.208008,25.3385417 232.208008,24.3632812 C232.208008,23.7161458 232.066732,23.258138 231.78418,22.9892578 C231.501628,22.7203776 231.132487,22.5859375 230.676758,22.5859375 C230.312174,22.5859375 230.038737,22.6816406 229.856445,22.8730469 C229.674154,23.0644531 229.583008,23.3014323 229.583008,23.5839844 C229.583008,23.921224 229.68099,24.1901042 229.876953,24.390625 C230.072917,24.5911458 230.243815,24.7278646 230.389648,24.8007812 L230.389648,24.8007812 L230.62207,24.9238281 C230.822591,25.0332031 230.950195,25.1630859 231.004883,25.3134766 C231.05957,25.4638672 231.086914,25.6165365 231.086914,25.7714844 C231.086914,26.4459635 230.649414,27.6263021 229.774414,29.3125 C229.327799,30.1692708 228.625977,31.3997396 227.668945,33.0039062 L227.668945,33.0039062 L227.12207,29.75 C226.976237,28.9023438 226.611654,27.5442708 226.02832,25.6757812 C225.381185,23.5976562 224.943685,22.5722656 224.71582,22.5996094 L224.71582,22.5996094 L224.428711,22.6269531 L220.696289,23.3378906 L220.696289,23.7890625 C221.015299,23.7526042 221.240885,23.7275391 221.373047,23.7138672 C221.505208,23.7001953 221.598633,23.6933594 221.65332,23.6933594 C222.373372,23.6933594 222.917969,23.985026 223.287109,24.5683594 C223.65625,25.1516927 224.064128,26.2636719 224.510742,27.9042969 C224.829753,29.0709635 225.160156,30.4016927 225.501953,31.8964844 C225.84375,33.391276 226.014648,34.3938802 226.014648,34.9042969 C226.014648,35.4420573 225.520182,36.3011068 224.53125,37.4814453 C223.542318,38.6617839 222.824544,39.2519531 222.37793,39.2519531 C222.295898,39.2519531 222.220703,39.2405599 222.152344,39.2177734 C222.083984,39.194987 222.022461,39.1608073 221.967773,39.1152344 L221.967773,39.1152344 L221.776367,38.9785156 C221.584961,38.8144531 221.402669,38.6891276 221.229492,38.6025391 C221.056315,38.5159505 220.855794,38.4726562 220.62793,38.4726562 C220.281576,38.4726562 220.017253,38.577474 219.834961,38.7871094 C219.652669,38.9967448 219.561523,39.2473958 219.561523,39.5390625 C219.561523,39.9309896 219.705078,40.2408854 219.992188,40.46875 C220.279297,40.6966146 220.609701,40.8105469 220.983398,40.8105469 Z" id="y" fill="#00DB00" fill-rule="nonzero"></path>
        <path d="M241.59375,41 L242.428711,38.5126953 L242.050781,38.3808594 C241.652344,39.125 240.999023,39.4970703 240.09082,39.4970703 C240.073242,39.4970703 240.04541,39.4912109 240.007324,39.4794922 C239.969238,39.4677734 239.941406,39.4619141 239.923828,39.4619141 L239.923828,39.4619141 L236.522461,39.4619141 C238.02832,38.0205078 239.112305,36.8955078 239.774414,36.0869141 C241.086914,34.4931641 241.743164,33.1572266 241.743164,32.0791016 C241.743164,31.1123047 241.447266,30.3168945 240.855469,29.6928711 C240.263672,29.0688477 239.484375,28.7568359 238.517578,28.7568359 C236.367188,28.7568359 235.083984,29.9726562 234.667969,32.4042969 L234.667969,32.4042969 L235.02832,32.5185547 C235.327148,31.7861328 235.643555,31.2441406 235.977539,30.8925781 C236.428711,30.4179688 236.991211,30.1806641 237.665039,30.1806641 C238.40918,30.1806641 239.003906,30.4194336 239.449219,30.8969727 C239.894531,31.3745117 240.117188,31.9912109 240.117188,32.7470703 C240.117188,33.8251953 239.651367,34.9794922 238.719727,36.2099609 C238.444336,36.5673828 237.580078,37.5195312 236.126953,39.0664062 L236.126953,39.0664062 L234.571289,40.71875 L234.571289,41 L241.59375,41 Z" id="2" fill="#000000" fill-rule="nonzero"></path>
        <path d="M282.075195,41 L282.075195,40.6396484 C281.424805,40.6103516 281,40.5341797 280.800781,40.4111328 C280.507812,40.2236328 280.361328,39.8310547 280.361328,39.2333984 L280.361328,39.2333984 L280.361328,28.7216797 L276.924805,30.4882812 L276.924805,30.8486328 C277.616211,30.5791016 278.035156,30.4443359 278.181641,30.4443359 C278.550781,30.4443359 278.735352,30.7050781 278.735352,31.2265625 L278.735352,31.2265625 L278.735352,39.1367188 C278.735352,39.7460938 278.600586,40.15625 278.331055,40.3671875 C278.102539,40.5488281 277.671875,40.6396484 277.039062,40.6396484 L277.039062,40.6396484 L277.039062,41 L282.075195,41 Z" id="1" fill="#000000" fill-rule="nonzero"></path>
        <path d="M288.800781,40.2226562 C291.088542,38.6458333 292.77474,36.9186198 293.859375,35.0410156 C295.035156,33.0358073 295.623047,30.6979167 295.623047,28.0273438 C295.623047,25.5664062 295.007812,23.2832031 293.777344,21.1777344 C292.574219,19.108724 290.90625,17.4270833 288.773438,16.1328125 L288.773438,16.1328125 L288.376953,16.6933594 C290.272786,18.3522135 291.548828,20.0839844 292.205078,21.8886719 C292.742839,23.3925781 293.011719,25.5299479 293.011719,28.3007812 C293.011719,30.9622396 292.738281,33.0403646 292.191406,34.5351562 C291.535156,36.2942708 290.286458,37.9759115 288.445312,39.5800781 L288.445312,39.5800781 L288.800781,40.2226562 Z" id=")" fill="#000000" fill-rule="nonzero"></path>
        <polygon id="-" fill="#000000" fill-rule="nonzero" points="256.691406 28.7109375 256.691406 26.3183594 249.308594 26.3183594 249.308594 28.7109375"></polygon>
        <path d="M261.983398,40.8105469 C262.94043,40.8105469 264.143555,39.9856771 265.592773,38.3359375 C266.504232,37.2877604 267.593424,35.797526 268.860352,33.8652344 C269.87207,32.3157552 270.788086,30.7161458 271.608398,29.0664062 C272.674805,26.90625 273.208008,25.3385417 273.208008,24.3632812 C273.208008,23.7161458 273.066732,23.258138 272.78418,22.9892578 C272.501628,22.7203776 272.132487,22.5859375 271.676758,22.5859375 C271.312174,22.5859375 271.038737,22.6816406 270.856445,22.8730469 C270.674154,23.0644531 270.583008,23.3014323 270.583008,23.5839844 C270.583008,23.921224 270.68099,24.1901042 270.876953,24.390625 C271.072917,24.5911458 271.243815,24.7278646 271.389648,24.8007812 L271.389648,24.8007812 L271.62207,24.9238281 C271.822591,25.0332031 271.950195,25.1630859 272.004883,25.3134766 C272.05957,25.4638672 272.086914,25.6165365 272.086914,25.7714844 C272.086914,26.4459635 271.649414,27.6263021 270.774414,29.3125 C270.327799,30.1692708 269.625977,31.3997396 268.668945,33.0039062 L268.668945,33.0039062 L268.12207,29.75 C267.976237,28.9023438 267.611654,27.5442708 267.02832,25.6757812 C266.381185,23.5976562 265.943685,22.5722656 265.71582,22.5996094 L265.71582,22.5996094 L265.428711,22.6269531 L261.696289,23.3378906 L261.696289,23.7890625 C262.015299,23.7526042 262.240885,23.7275391 262.373047,23.7138672 C262.505208,23.7001953 262.598633,23.6933594 262.65332,23.6933594 C263.373372,23.6933594 263.917969,23.985026 264.287109,24.5683594 C264.65625,25.1516927 265.064128,26.2636719 265.510742,27.9042969 C265.829753,29.0709635 266.160156,30.4016927 266.501953,31.8964844 C266.84375,33.391276 267.014648,34.3938802 267.014648,34.9042969 C267.014648,35.4420573 266.520182,36.3011068 265.53125,37.4814453 C264.542318,38.6617839 263.824544,39.2519531 263.37793,39.2519531 C263.295898,39.2519531 263.220703,39.2405599 263.152344,39.2177734 C263.083984,39.194987 263.022461,39.1608073 262.967773,39.1152344 L262.967773,39.1152344 L262.776367,38.9785156 C262.584961,38.8144531 262.402669,38.6891276 262.229492,38.6025391 C262.056315,38.5159505 261.855794,38.4726562 261.62793,38.4726562 C261.281576,38.4726562 261.017253,38.577474 260.834961,38.7871094 C260.652669,38.9967448 260.561523,39.2473958 260.561523,39.5390625 C260.561523,39.9309896 260.705078,40.2408854 260.992188,40.46875 C261.279297,40.6966146 261.609701,40.8105469 261.983398,40.8105469 Z" id="y" fill="#00DB00" fill-rule="nonzero"></path>
        <path d="M307.59375,25 L308.428711,22.5126953 L308.050781,22.3808594 C307.652344,23.125 306.999023,23.4970703 306.09082,23.4970703 C306.073242,23.4970703 306.04541,23.4912109 306.007324,23.4794922 C305.969238,23.4677734 305.941406,23.4619141 305.923828,23.4619141 L305.923828,23.4619141 L302.522461,23.4619141 C304.02832,22.0205078 305.112305,20.8955078 305.774414,20.0869141 C307.086914,18.4931641 307.743164,17.1572266 307.743164,16.0791016 C307.743164,15.1123047 307.447266,14.3168945 306.855469,13.6928711 C306.263672,13.0688477 305.484375,12.7568359 304.517578,12.7568359 C302.367188,12.7568359 301.083984,13.9726562 300.667969,16.4042969 L300.667969,16.4042969 L301.02832,16.5185547 C301.327148,15.7861328 301.643555,15.2441406 301.977539,14.8925781 C302.428711,14.4179688 302.991211,14.1806641 303.665039,14.1806641 C304.40918,14.1806641 305.003906,14.4194336 305.449219,14.8969727 C305.894531,15.3745117 306.117188,15.9912109 306.117188,16.7470703 C306.117188,17.8251953 305.651367,18.9794922 304.719727,20.2099609 C304.444336,20.5673828 303.580078,21.5195312 302.126953,23.0664062 L302.126953,23.0664062 L300.571289,24.71875 L300.571289,25 L307.59375,25 Z" id="2" fill="#000000" fill-rule="nonzero"></path>
        <path d="M46.5615234,23.0449219 L46.5615234,21.1855469 L32.4384766,21.1855469 L32.4384766,23.0449219 L46.5615234,23.0449219 Z M46.5615234,28.6367188 L46.5615234,26.7910156 L32.4384766,26.7910156 L32.4384766,28.6367188 L46.5615234,28.6367188 Z" id="=" fill="#000000" fill-rule="nonzero"></path>
        <polygon id="+" fill="#000000" fill-rule="nonzero" points="189.258789 36.0429688 189.258789 29.4667969 195.821289 29.4667969 195.821289 27.9628906 189.258789 27.9628906 189.258789 21.3867188 187.741211 21.3867188 187.741211 27.9628906 181.178711 27.9628906 181.178711 29.4667969 187.741211 29.4667969 187.741211 36.0429688"></polygon>
    </g>
</svg>