<?xml version="1.0" encoding="UTF-8"?>
<svg width="600px" height="250px" viewBox="0 0 600 250" version="1.1" xmlns="http://www.w3.org/2000/svg" xmlns:xlink="http://www.w3.org/1999/xlink">
    <title>DotProductsDiagram</title>
    <g id="DotProductsDiagram" stroke="none" stroke-width="1" fill="none" fill-rule="evenodd">
        <rect id="Rectangle-Copy-6" fill-opacity="0.3" fill="#92FF92" x="300" y="0" width="300" height="250"></rect>
        <g id="Group" transform="translate(521.000000, 138.000000)">
            <polygon id="Rectangle-Copy" fill="#FF0000" points="-8.44530795e-14 5.04813988 11.8857143 12.4579048 11.8857143 28.8195685 -8.44530795e-14 21.4098035"></polygon>
            <polygon id="Rectangle-Copy-3" fill="#FF2E2E" points="14.246317 -5.27831747e-15 26 7.2579048 11.8857143 12.4767113 -8.44530795e-14 5.06694639"></polygon>
            <polygon id="Rectangle-Copy-2" fill="#821414" transform="translate(18.942857, 18.038737) scale(-1, 1) translate(-18.942857, -18.038737) " points="11.8857143 7.2579048 26 12.4579048 26 28.8195685 11.8857143 23.6195685"></polygon>
        </g>
        <rect id="Rectangle" fill-opacity="0.3" fill="#CAE9FF" x="0" y="0" width="300" height="250"></rect>
        <g id="Group" transform="translate(244.000000, 121.000000)">
            <polygon id="Rectangle-Copy" fill="#FF0000" points="-8.44530795e-14 5.04813988 11.8857143 12.4579048 11.8857143 28.8195685 -8.44530795e-14 21.4098035"></polygon>
            <polygon id="Rectangle-Copy-3" fill="#FF2E2E" points="14.246317 -5.27831747e-15 26 7.2579048 11.8857143 12.4767113 -8.44530795e-14 5.06694639"></polygon>
            <polygon id="Rectangle-Copy-2" fill="#821414" transform="translate(18.942857, 18.038737) scale(-1, 1) translate(-18.942857, -18.038737) " points="11.8857143 7.2579048 26 12.4579048 26 28.8195685 11.8857143 23.6195685"></polygon>
        </g>
        <g id="Group-3" transform="translate(169.000000, 21.000000)">
            <circle id="Oval" fill="#00C5D3" cx="15" cy="15" r="15"></circle>
            <path d="M15,30 C23.2842712,30 30,23.2842712 30,14.9999684 C19.784405,25.4358849 6.28005748,22.4999842 0,14.9999684 C0,23.2842712 6.71572875,30 15,30 Z" id="Oval" fill="#00B7C4"></path>
        </g>
        <g id="Group-3" transform="translate(444.000000, 38.000000)">
            <circle id="Oval" fill="#00C5D3" cx="15" cy="15" r="15"></circle>
            <path d="M15,30 C23.2842712,30 30,23.2842712 30,14.9999684 C19.784405,25.4358849 6.28005748,22.4999842 0,14.9999684 C0,23.2842712 6.71572875,30 15,30 Z" id="Oval" fill="#00B7C4"></path>
        </g>
        <g id="Group-2" transform="translate(47.000000, 27.000000)">
            <path d="M84.2109144,87.8308863 C105.496673,96.8320992 113.712715,112.832099 108.85904,135.830886 C56.6131296,139.400291 29.9235726,141.156135 28.7903684,141.09842 L84.2109144,87.8308863 Z" id="Path-3" fill-opacity="0.3" fill="#FF8F00" transform="translate(69.500641, 114.465342) rotate(-8.000000) translate(-69.500641, -114.465342) "></path>
            <path d="M83.5745946,84 C104.860353,93.0012129 113.076395,109.001213 108.22272,132" id="Path-3" stroke="#FF8F00" stroke-width="6" stroke-linecap="round" transform="translate(96.574595, 108.000000) rotate(-8.000000) translate(-96.574595, -108.000000) "></path>
            <line x1="32.893166" y1="147" x2="121.893166" y2="30" id="Line" stroke="#D6AD18" stroke-width="10" stroke-linecap="round"></line>
            <line x1="32.893166" y1="147" x2="187.893166" y2="116" id="Line" stroke="#FFC800" stroke-width="10" stroke-linecap="round"></line>
            <line x1="32.893166" y1="147" x2="187.893166" y2="116" id="Line" stroke="#FFC800" stroke-width="10" stroke-linecap="round"></line>
            <path d="M131.849709,102.449219 C133.961037,102.419271 135.922626,101.655599 137.734475,100.158203 C139.486428,98.6907552 141.006285,96.8040365 142.294045,94.4980469 C144.95941,89.6015625 146.307066,84.7125651 146.337014,79.8310547 C146.366962,77.4651693 145.92523,75.2265625 145.011818,73.1152344 C144.517678,72.1269531 143.813902,71.3258464 142.90049,70.7119141 C141.942157,70.1129557 140.729266,69.8134766 139.261818,69.8134766 C137.270282,69.8434245 135.413511,70.5472005 133.691506,71.9248047 C131.939553,73.3323568 130.404722,75.1516927 129.087014,77.3828125 C126.361753,82.1145833 124.969175,86.913737 124.909279,91.7802734 C124.909279,92.9182943 124.999123,94.101237 125.178811,95.3291016 C125.358498,96.5569661 125.695412,97.7099609 126.189553,98.7880859 C126.683693,99.851237 127.387469,100.719727 128.300881,101.393555 C129.229266,102.067383 130.412209,102.419271 131.849709,102.449219 Z M141.418068,84.6601562 L130.704201,84.6601562 C130.973732,83.5520833 131.370542,82.234375 131.894631,80.7070312 C132.358824,79.1946615 132.942808,77.7047526 133.646584,76.2373047 C134.35036,74.7399089 135.181415,73.4820964 136.139748,72.4638672 C137.05316,71.4905599 138.09385,70.9889323 139.261818,70.9589844 C140.085386,70.9589844 140.74424,71.108724 141.238381,71.4082031 C141.702574,71.7526042 142.039488,72.2018229 142.249123,72.7558594 C142.548602,73.9088542 142.683368,75.1591797 142.65342,76.5068359 C142.65342,77.8395182 142.533628,79.1796875 142.294045,80.5273438 C142.024514,81.9049479 141.732521,83.2825521 141.418068,84.6601562 L141.418068,84.6601562 Z M132.11924,101.303711 C130.90635,101.273763 130.022886,100.817057 129.46885,99.9335938 C128.884865,99.0351562 128.592873,98.0244141 128.592873,96.9013672 C128.682717,92.5738932 129.214292,89.0026042 130.1876,86.1875 L130.1876,86.1875 L141.013771,86.1875 C140.579527,88.2988281 139.583758,91.2412109 138.026467,95.0146484 C137.277769,96.7216797 136.416766,98.1741536 135.443459,99.3720703 C134.949318,99.9560547 134.42523,100.420247 133.871193,100.764648 C133.317157,101.124023 132.733173,101.303711 132.11924,101.303711 Z" id="θ" fill="#000000" fill-rule="nonzero"></path>
            <polygon id="Rectangle" fill="#D6AD18" transform="translate(122.700527, 29.505003) rotate(-190.000000) translate(-122.700527, -29.505003) " points="112.200527 19.0050032 122.700527 29.3034551 133.200527 40.0050032 112.200527 40.0050032"></polygon>
            <polygon id="Rectangle-Copy-3" fill="#FFC800" transform="translate(187.700527, 115.505003) rotate(-147.000000) translate(-187.700527, -115.505003) " points="177.200527 105.005003 187.700527 115.303455 198.200527 126.005003 177.200527 126.005003"></polygon>
            <path id="Line-Copy" d="M103.995208,-3.72652794 L104.12996,-3.63276118 L112.085072,2.39395918 C112.090355,2.39788143 112.095625,2.4018336 112.100881,2.4058157 L112.114,2.417 L120.071803,8.44439258 C120.952247,9.11139537 121.125275,10.3658486 120.458272,11.2462923 C119.824619,12.0827137 118.660793,12.2806926 117.791124,11.7265279 L117.656372,11.6327612 L111.279,6.801 L13.694,135.613 L20.0718029,140.444393 C20.9522466,141.111395 21.1252746,142.365849 20.4582718,143.246292 C19.8246192,144.082714 18.6607925,144.280693 17.7911236,143.726528 L17.6563721,143.632761 L9.69230607,137.599355 C9.69001843,137.597637 9.68773328,137.595914 9.68545065,137.594184 L9.678,137.588 L1.71452917,131.555607 C0.834085493,130.888605 0.661057464,129.634151 1.32806025,128.753708 C1.96171289,127.917286 3.12553955,127.719307 3.99520848,128.273472 L4.12995992,128.367239 L10.506,133.198 L108.09,4.386 L101.714529,-0.444392584 C100.834085,-1.11139537 100.661057,-2.36584858 101.32806,-3.24629226 C101.961713,-4.08271375 103.12554,-4.28069262 103.995208,-3.72652794 Z" fill="#B18E00" fill-rule="nonzero"></path>
            <path id="Line-Copy-2" d="M205.89303,123.656615 L205.927197,123.802018 L209.784054,143.426611 C209.997062,144.510447 209.291116,145.561748 208.20728,145.774756 C207.172709,145.978082 206.167783,145.344097 205.893302,144.343385 L205.859135,144.197982 L204.316,136.348 L35.241,169.576 L36.7840536,177.426611 C36.9970619,178.510447 36.2911163,179.561748 35.2072799,179.774756 C34.1727088,179.978082 33.1677832,179.344097 32.8933019,178.343385 L32.8591349,178.197982 L29.0022785,158.573389 C28.7892702,157.489553 29.4952158,156.438252 30.5790521,156.225244 C31.6136232,156.021918 32.6185488,156.655903 32.8930302,157.656615 L32.9271971,157.802018 L34.47,165.651 L203.545,132.423 L202.002278,124.573389 C201.78927,123.489553 202.495216,122.438252 203.579052,122.225244 C204.613623,122.021918 205.618549,122.655903 205.89303,123.656615 Z" fill="#B18E00" fill-rule="nonzero"></path>
            <rect id="Rectangle" fill-opacity="0.75" fill="#EEF8FF" transform="translate(57.000000, 62.428649) rotate(-51.000000) translate(-57.000000, -62.428649) " x="-4" y="39.428649" width="122" height="46"></rect>
            <rect id="Rectangle-Copy" fill-opacity="0.75" fill="#EEF8FF" transform="translate(122.527559, 161.714863) rotate(-11.000000) translate(-122.527559, -161.714863) " x="60.0275592" y="138.714863" width="125" height="46"></rect>
            <path d="M14.8648457,72.1738281 C15.6304707,72.1738281 16.3915384,71.7955729 17.1480488,71.0390625 C17.5855488,70.5924479 18.1962259,69.7903646 18.9800801,68.6328125 L18.9800801,68.6328125 L18.6109395,68.3730469 C18.2463561,68.9199219 17.7997415,69.485026 17.2710957,70.0683594 C16.7424499,70.6516927 16.3140645,70.9433594 15.9859395,70.9433594 C15.8127624,70.9433594 15.6942728,70.8818359 15.6304707,70.7587891 C15.5666686,70.6357422 15.5347676,70.4876302 15.5347676,70.3144531 C15.5347676,70.2324219 15.5438822,70.1503906 15.5621113,70.0683594 C15.5803405,69.9863281 15.6395853,69.749349 15.7398457,69.3574219 L15.7398457,69.3574219 L20.0464863,52.9238281 C19.9826843,52.8326823 19.9188822,52.7871094 19.8550801,52.7871094 C19.1259134,52.969401 18.5061218,53.1061198 17.9957051,53.1972656 C17.8316426,53.2246094 17.4830098,53.2747396 16.9498067,53.3476562 C16.4166035,53.4205729 15.9449238,53.484375 15.5347676,53.5390625 L15.5347676,53.5390625 L15.5347676,53.9902344 C16.2821634,53.9811198 16.7811869,54.0107422 17.0318379,54.0791016 C17.2824889,54.1474609 17.4078145,54.3365885 17.4078145,54.6464844 C17.4078145,54.719401 17.4032572,54.8151042 17.3941426,54.9335937 C17.385028,55.0520833 17.3622415,55.1705729 17.3257832,55.2890625 L17.3257832,55.2890625 L13.6890645,68.9609375 C13.6161478,69.2617187 13.556903,69.5260417 13.5113301,69.7539062 C13.4384134,70.1367187 13.4019551,70.4420573 13.4019551,70.6699219 C13.4019551,71.2623698 13.5979186,71.6816406 13.9898457,71.9277344 C14.245054,72.0917969 14.5367207,72.1738281 14.8648457,72.1738281 Z M24.5308613,72.2148437 C25.8980488,72.2148437 27.260679,71.7272135 28.618752,70.7519531 C29.384377,70.2050781 29.9722676,69.671875 30.3824238,69.1523437 L30.3824238,69.1523437 L30.0269551,68.8378906 C29.197528,69.5214844 28.5640645,69.9954427 28.1265645,70.2597656 C27.3609395,70.7154948 26.6363301,70.9433594 25.9527363,70.9433594 C25.2326843,70.9433594 24.6106139,70.7200521 24.0865254,70.2734375 C23.5624369,69.8268229 23.3003926,69.202474 23.3003926,68.4003906 C23.3003926,68.063151 23.323179,67.7828776 23.368752,67.5595703 C23.4143249,67.336263 23.4963561,67.0377604 23.6148457,66.6640625 L23.6148457,66.6640625 L24.3941426,66.5683594 C26.0894551,66.358724 27.705015,65.7867839 29.2408223,64.8525391 C30.7766296,63.9182943 31.5445332,62.7949219 31.5445332,61.4824219 C31.5445332,60.8352865 31.3348978,60.3476562 30.915627,60.0195312 C30.4963561,59.6914062 29.931252,59.5273437 29.2203145,59.5273437 C27.2971374,59.5273437 25.4332051,60.4752604 23.6285176,62.3710937 C21.8056009,64.2669271 20.8941426,66.2265625 20.8941426,68.25 C20.8941426,69.5260417 21.2587259,70.5058594 21.9878926,71.1894531 C22.7170593,71.8730469 23.5647155,72.2148437 24.5308613,72.2148437 Z M23.806252,66.0488281 C23.979429,65.5839844 24.1434915,65.1692708 24.2984395,64.8046875 C24.5809915,64.1210937 24.963804,63.405599 25.446877,62.6582031 C25.9026061,62.0201823 26.4153014,61.4482422 26.9849629,60.9423828 C27.5546244,60.4365234 28.135679,60.1835937 28.728127,60.1835937 C29.0471374,60.1835937 29.2886738,60.2861328 29.4527363,60.4912109 C29.6167988,60.6962891 29.6988301,60.9720052 29.6988301,61.3183594 C29.6988301,62.2753906 29.1519551,63.2392578 28.0582051,64.2099609 C26.9644551,65.1806641 25.5471374,65.7936198 23.806252,66.0488281 Z M41.9351582,72.1738281 C42.618752,72.1738281 43.3342468,71.8138021 44.0816426,71.09375 C44.5191426,70.6835937 45.1115905,69.9726562 45.8589863,68.9609375 L45.8589863,68.9609375 L45.462502,68.6054687 C44.760679,69.5169271 44.2548197,70.1116536 43.9449238,70.3896484 C43.635028,70.6676432 43.3615905,70.8066406 43.1246113,70.8066406 C42.978778,70.8066406 42.8739603,70.7519531 42.8101582,70.6425781 C42.7463561,70.5332031 42.7144551,70.4101562 42.7144551,70.2734375 C42.7144551,70.1914062 42.7372415,70.0524089 42.7828145,69.8564453 C42.8283874,69.6604818 42.869403,69.4941406 42.9058613,69.3574219 L42.9058613,69.3574219 L44.696877,62.8085937 C44.7697936,62.5351562 44.8290384,62.2799479 44.8746113,62.0429687 C44.9201843,61.8059896 44.9429707,61.578125 44.9429707,61.359375 C44.9429707,60.5755208 44.6649759,60.0332031 44.1089863,59.7324219 C43.8173197,59.577474 43.4709655,59.5 43.0699238,59.5 C42.0308613,59.5 40.8550801,60.233724 39.5425801,61.7011719 C38.7951843,62.530599 37.8654968,63.797526 36.7535176,65.5019531 L36.7535176,65.5019531 L38.571877,59.6230469 C38.5536478,59.577474 38.5171895,59.5364583 38.462502,59.5 L38.462502,59.5 L36.0152363,60.0332031 C35.7235697,60.0970052 35.4524108,60.1516927 35.2017598,60.1972656 C34.9511087,60.2428385 34.5295593,60.3111979 33.9371113,60.4023437 L33.9371113,60.4023437 L33.9371113,60.8671875 C34.0647155,60.8489583 34.1809264,60.8330078 34.2857442,60.8193359 C34.3905619,60.8056641 34.4976582,60.7988281 34.6070332,60.7988281 C35.0445332,60.7988281 35.3384785,60.8740234 35.4888692,61.0244141 C35.6392598,61.1748047 35.7144551,61.3821615 35.7144551,61.6464844 C35.7144551,61.8196615 35.6985046,61.9814453 35.6666035,62.1318359 C35.6347025,62.2822266 35.5184915,62.7128906 35.3179707,63.4238281 L35.3179707,63.4238281 L32.9527363,71.8730469 L35.071877,71.8730469 C35.6734395,69.8951823 36.1132181,68.5302734 36.3912129,67.7783203 C36.6692077,67.0263672 37.0497415,66.2539062 37.5328145,65.4609375 C38.1617207,64.4401042 38.7815124,63.5605469 39.3921895,62.8222656 C40.431252,61.5826823 41.2925801,60.9628906 41.9761738,60.9628906 C42.2404968,60.9628906 42.4250671,61.0426432 42.5298848,61.2021484 C42.6347025,61.3616536 42.6871113,61.5507812 42.6871113,61.7695312 C42.6871113,61.8697917 42.6711608,62.0361328 42.6392598,62.2685547 C42.6073587,62.5009766 42.5458353,62.7994792 42.4546895,63.1640625 L42.4546895,63.1640625 L40.7320332,69.8085937 C40.6955749,69.9361979 40.6659525,70.0865885 40.643166,70.2597656 C40.6203796,70.4329427 40.6089863,70.5970052 40.6089863,70.7519531 C40.6089863,71.2897135 40.752541,71.6611328 41.0396504,71.8662109 C41.3267598,72.0712891 41.6252624,72.1738281 41.9351582,72.1738281 Z M51.2320332,77.6699219 C53.2554707,77.6699219 54.7684915,77.257487 55.7710957,76.4326172 C56.7736999,75.6077474 57.275002,74.6484375 57.275002,73.5546875 C57.275002,72.0963542 56.2769551,70.9889323 54.2808613,70.2324219 C52.275653,69.485026 51.2730488,68.9563802 51.2730488,68.6464844 C51.2730488,68.436849 51.3960957,68.1998698 51.6421895,67.9355469 C51.8791686,67.671224 52.0660176,67.5390625 52.2027363,67.5390625 C52.3759134,67.5755208 52.5217468,67.6005859 52.6402363,67.6142578 C52.7587259,67.6279297 52.8863301,67.6347656 53.0230488,67.6347656 C54.3446634,67.6347656 55.5774108,67.2109375 56.721291,66.3632812 C57.8651712,65.515625 58.4371113,64.3535156 58.4371113,62.8769531 C58.4371113,62.5761719 58.4234395,62.34375 58.3960957,62.1796875 C58.368752,62.015625 58.3277363,61.8333333 58.2730488,61.6328125 L58.2730488,61.6328125 L59.6675801,61.6328125 L59.6675801,60.5390625 L57.821877,60.5390625 C57.7216165,60.3658854 57.384377,60.1494141 56.8101582,59.8896484 C56.2359395,59.6298828 55.5341165,59.5 54.7046895,59.5 C53.118752,59.5 51.7880228,59.9557292 50.712502,60.8671875 C49.6369811,61.7786458 49.0992207,62.922526 49.0992207,64.2988281 C49.0992207,65.155599 49.354429,65.8528646 49.8648457,66.390625 C50.2841165,66.7916667 50.7854186,67.1015625 51.368752,67.3203125 C50.712502,67.7669271 50.2385436,68.1269531 49.946877,68.4003906 C49.4273457,68.8834635 49.1675801,69.311849 49.1675801,69.6855469 C49.1675801,69.9498698 49.2404968,70.1617839 49.3863301,70.3212891 C49.5321634,70.4807943 49.7190124,70.6334635 49.946877,70.7792969 C48.807554,71.389974 47.9758483,72.0029297 47.4517598,72.6181641 C46.9276712,73.2333984 46.665627,73.8828125 46.665627,74.5664062 C46.665627,75.4322917 47.0757832,76.1660156 47.8960957,76.7675781 C48.7164082,77.3691406 49.8283874,77.6699219 51.2320332,77.6699219 Z M53.1324238,67.0605469 C52.3759134,67.0605469 51.8518249,66.7825521 51.5601582,66.2265625 C51.3869811,65.8893229 51.3003926,65.438151 51.3003926,64.8730469 C51.3003926,63.8704427 51.6125671,62.8268229 52.236916,61.7421875 C52.861265,60.6575521 53.6838561,60.1152344 54.7046895,60.1152344 C55.2333353,60.1152344 55.6298197,60.2861328 55.8941426,60.6279297 C56.1584655,60.9697266 56.290627,61.4414062 56.290627,62.0429687 C56.290627,63.3007812 55.9693379,64.4514974 55.3267598,65.4951172 C54.6841817,66.538737 53.9527363,67.0605469 53.1324238,67.0605469 Z M51.7789082,77.0683594 C50.9768249,77.0683594 50.3023457,76.9498698 49.7554707,76.7128906 C48.7072936,76.2571615 48.1832051,75.4231771 48.1832051,74.2109375 C48.1832051,73.4088542 48.525002,72.6910807 49.2085957,72.0576172 C49.8921895,71.4241536 50.3524759,71.1074219 50.5894551,71.1074219 C50.7261738,71.1074219 51.2388692,71.2783203 52.127541,71.6201172 C53.0162129,71.9619141 53.6473978,72.2239583 54.0210957,72.40625 C54.4677103,72.6341146 54.791278,72.8483073 54.9917988,73.0488281 C55.3654968,73.422526 55.5523457,73.8828125 55.5523457,74.4296875 C55.5523457,75.1497396 55.1945983,75.7695312 54.4791035,76.2890625 C53.7636087,76.8085937 52.8635436,77.0683594 51.7789082,77.0683594 Z M62.8257832,72.1738281 C63.3635436,72.1738281 63.9309264,71.9436849 64.5279317,71.4833984 C65.1249369,71.023112 65.8153665,70.2050781 66.5992207,69.0292969 L66.5992207,69.0292969 L66.790627,68.7421875 L66.4351582,68.5371094 C65.8518249,69.2936198 65.4371113,69.7994792 65.1910176,70.0546875 C64.7626322,70.5286458 64.4299499,70.765625 64.1929707,70.765625 C64.0197936,70.765625 63.8967468,70.6904297 63.8238301,70.5400391 C63.7509134,70.3896484 63.7372415,70.2324219 63.7828145,70.0683594 L63.7828145,70.0683594 L66.243752,60.8671875 L68.5679707,60.8671875 L68.7320332,59.9511719 L66.5035176,59.9511719 L67.2828145,56.9707031 C67.291929,56.9160156 67.2942077,56.8636068 67.2896504,56.8134766 C67.2850931,56.7633464 67.2691426,56.7063802 67.2417988,56.6425781 C67.2053405,56.624349 67.1415384,56.6061198 67.0503926,56.5878906 C67.0048197,56.5878906 66.9615254,56.5992839 66.9205098,56.6220703 C66.8794942,56.6448568 66.8453145,56.6744792 66.8179707,56.7109375 L66.8179707,56.7109375 L66.5992207,56.9707031 C65.7242207,58.0097656 65.033791,58.7115885 64.5279317,59.0761719 C64.0220723,59.4407552 63.3088561,59.8190104 62.3882832,60.2109375 C62.2424499,60.2747396 62.151304,60.3385417 62.1148457,60.4023437 C62.0783874,60.4661458 62.0601582,60.6210937 62.0601582,60.8671875 L62.0601582,60.8671875 L64.1382832,60.8671875 L61.5679707,70.4238281 C61.540627,70.5240885 61.5223978,70.6220703 61.5132832,70.7177734 C61.5041686,70.8134766 61.4996113,70.8977865 61.4996113,70.9707031 C61.4996113,71.280599 61.604429,71.5585937 61.8140645,71.8046875 C62.0236999,72.0507812 62.3609395,72.1738281 62.8257832,72.1738281 Z M77.5777363,72.1738281 C78.3798197,72.1738281 79.1773457,71.7864583 79.9703145,71.0117187 C80.416929,70.5742187 80.9592468,69.8815104 81.5972676,68.9335937 L81.5972676,68.9335937 L81.2417988,68.6054687 C80.5946634,69.4348958 80.1526061,69.9726562 79.915627,70.21875 C79.5328145,70.6106771 79.2001322,70.8066406 78.9175801,70.8066406 C78.7808613,70.8066406 78.6760436,70.7679036 78.603127,70.6904297 C78.5302103,70.6129557 78.493752,70.4967448 78.493752,70.3417969 C78.493752,70.2050781 78.5119811,70.0524089 78.5484395,69.8837891 C78.5848978,69.7151693 78.6304707,69.5397135 78.6851582,69.3574219 L78.6851582,69.3574219 L80.5308613,62.8085937 C80.5946634,62.5989583 80.6493509,62.3574219 80.6949238,62.0839844 C80.7404968,61.8105469 80.7632832,61.5872396 80.7632832,61.4140625 C80.7632832,60.6940104 80.5604837,60.194987 80.1548848,59.9169922 C79.7492858,59.6389974 79.3277363,59.5 78.8902363,59.5 C77.8238301,59.5 76.6526061,60.1744792 75.3765645,61.5234375 C74.6473978,62.3072917 73.7085957,63.546875 72.5601582,65.2421875 L72.5601582,65.2421875 L75.7730488,53.0332031 C75.7730488,52.9511719 75.7183613,52.8828125 75.6089863,52.828125 C75.5634134,52.828125 75.4996113,52.8372396 75.4175801,52.8554687 C75.3355488,52.8736979 74.7567728,52.9876302 73.681252,53.1972656 C73.416929,53.2428385 73.1047546,53.2906901 72.7447285,53.3408203 C72.3847025,53.3909505 71.9130228,53.4570312 71.3296895,53.5390625 L71.3296895,53.5390625 L71.3296895,53.9902344 C72.0497415,53.953776 72.5373718,53.9742839 72.7925801,54.0517578 C73.0477884,54.1292318 73.1753926,54.3639323 73.1753926,54.7558594 C73.1753926,54.828776 73.1708353,54.90625 73.1617207,54.9882812 C73.1526061,55.0703125 73.134377,55.1705729 73.1070332,55.2890625 L73.1070332,55.2890625 L68.7320332,71.8730469 L70.8511738,71.8730469 C71.4891947,69.5761719 71.9198587,68.108724 72.143166,67.4707031 C72.3664733,66.8326823 72.696877,66.1536458 73.134377,65.4335937 C73.7723978,64.4127604 74.556252,63.4124349 75.4859395,62.4326172 C76.415627,61.4527995 77.1858093,60.9628906 77.7964863,60.9628906 C78.0243509,60.9628906 78.2111999,61.0266927 78.3570332,61.1542969 C78.493752,61.281901 78.5621113,61.4596354 78.5621113,61.6875 C78.5621113,61.7695312 78.5552754,61.8492839 78.5416035,61.9267578 C78.5279317,62.0042318 78.5119811,62.0794271 78.493752,62.1523437 L78.493752,62.1523437 L76.3882832,70.1640625 C76.3518249,70.2916667 76.3267598,70.4078776 76.3130879,70.5126953 C76.299416,70.617513 76.2925801,70.7291667 76.2925801,70.8476562 C76.2925801,71.2760417 76.415627,71.6041667 76.6617207,71.8320312 C76.9078145,72.0598958 77.213153,72.1738281 77.5777363,72.1738281 Z M92.5621113,72.1875 C92.9996113,72.1875 93.4553405,72.1054687 93.9292988,71.9414062 C94.5399759,71.6953125 95.1779968,71.2760417 95.8433613,70.6835937 C96.4084655,70.1914062 96.8847025,69.6832682 97.2720723,69.1591797 C97.6594421,68.6350911 97.9351582,68.2363281 98.0992207,67.9628906 C97.9807311,68.3821615 97.8599629,68.8994141 97.736916,69.5146484 C97.6138692,70.1298828 97.5523457,70.6015625 97.5523457,70.9296875 C97.5523457,71.2851562 97.6457702,71.5813802 97.8326192,71.8183594 C98.0194681,72.0553385 98.2815124,72.1738281 98.618752,72.1738281 C99.1382832,72.1738281 99.6851582,71.9573568 100.259377,71.5244141 C100.833596,71.0914714 101.594663,70.2688802 102.54258,69.0566406 L102.54258,69.0566406 L102.214455,68.7695312 L101.366799,69.6445312 C101.239195,69.7721354 101.12982,69.8792318 101.038674,69.9658203 C100.947528,70.0524089 100.865497,70.1276042 100.79258,70.1914062 L100.79258,70.1914062 L100.560158,70.3828125 C100.423439,70.4921875 100.307229,70.5742187 100.211525,70.6289062 C100.115822,70.6835937 100.026955,70.7109375 99.9449238,70.7109375 C99.8446634,70.7109375 99.7603535,70.6813151 99.6919942,70.6220703 C99.6236348,70.5628255 99.5894551,70.469401 99.5894551,70.3417969 C99.5894551,70.141276 99.7580749,69.3391927 100.095314,67.9355469 C100.286721,67.1608073 100.519143,66.2402344 100.79258,65.1738281 L100.79258,65.1738281 L102.050393,60.2792969 C102.086851,60.1516927 102.114195,60.0537109 102.132424,59.9853516 C102.150653,59.9169922 102.177997,59.8235677 102.214455,59.7050781 C102.232684,59.6230469 102.234963,59.5660807 102.221291,59.5341797 C102.207619,59.5022786 102.159768,59.4863281 102.077736,59.4863281 L102.077736,59.4863281 L100.532814,59.6640625 C100.432554,59.6731771 100.368752,59.6982422 100.341408,59.7392578 C100.314064,59.7802734 100.282163,59.860026 100.245705,59.9785156 L100.245705,59.9785156 L99.9449238,61.0175781 L99.8765645,60.8261719 C99.7580749,60.4980469 99.5940124,60.233724 99.384377,60.0332031 C98.9924499,59.6595052 98.4364603,59.4726562 97.7164082,59.4726562 C95.8205749,59.4726562 93.9885436,60.5527344 92.2203145,62.7128906 C90.5067728,64.7910156 89.650002,66.7871094 89.650002,68.7011719 C89.650002,69.813151 89.9507832,70.6722005 90.5523457,71.2783203 C91.1539082,71.8844401 91.8238301,72.1875 92.5621113,72.1875 Z M93.696877,70.7792969 C93.2320332,70.7792969 92.8423848,70.6129557 92.5279317,70.2802734 C92.2134785,69.9475911 92.056252,69.4166667 92.056252,68.6875 C92.056252,67.2382812 92.6167988,65.5110677 93.7378926,63.5058594 C95.0139343,61.2272135 96.3947936,60.0878906 97.8804707,60.0878906 C98.3088561,60.0878906 98.6734395,60.2428385 98.9742207,60.5527344 C99.275002,60.8626302 99.4253926,61.3457031 99.4253926,62.0019531 C99.4253926,63.624349 98.8420593,65.4427083 97.6753926,67.4570312 C96.3993509,69.671875 95.073179,70.7792969 93.696877,70.7792969 Z" id="lengtha" fill="#000000" fill-rule="nonzero" transform="translate(57.972268, 65.228516) rotate(-51.000000) translate(-57.972268, -65.228516) "></path>
            <path d="M77.3179707,161.228516 C78.0835957,161.228516 78.8446634,160.85026 79.6011738,160.09375 C80.0386738,159.647135 80.6493509,158.845052 81.4332051,157.6875 L81.4332051,157.6875 L81.0640645,157.427734 C80.6994811,157.974609 80.2528665,158.539714 79.7242207,159.123047 C79.1955749,159.70638 78.7671895,159.998047 78.4390645,159.998047 C78.2658874,159.998047 78.1473978,159.936523 78.0835957,159.813477 C78.0197936,159.69043 77.9878926,159.542318 77.9878926,159.369141 C77.9878926,159.287109 77.9970072,159.205078 78.0152363,159.123047 C78.0334655,159.041016 78.0927103,158.804036 78.1929707,158.412109 L78.1929707,158.412109 L82.4996113,141.978516 C82.4358093,141.88737 82.3720072,141.841797 82.3082051,141.841797 C81.5790384,142.024089 80.9592468,142.160807 80.4488301,142.251953 C80.2847676,142.279297 79.9361348,142.329427 79.4029317,142.402344 C78.8697285,142.47526 78.3980488,142.539063 77.9878926,142.59375 L77.9878926,142.59375 L77.9878926,143.044922 C78.7352884,143.035807 79.2343119,143.06543 79.4849629,143.133789 C79.7356139,143.202148 79.8609395,143.391276 79.8609395,143.701172 C79.8609395,143.774089 79.8563822,143.869792 79.8472676,143.988281 C79.838153,144.106771 79.8153665,144.22526 79.7789082,144.34375 L79.7789082,144.34375 L76.1421895,158.015625 C76.0692728,158.316406 76.010028,158.580729 75.9644551,158.808594 C75.8915384,159.191406 75.8550801,159.496745 75.8550801,159.724609 C75.8550801,160.317057 76.0510436,160.736328 76.4429707,160.982422 C76.698179,161.146484 76.9898457,161.228516 77.3179707,161.228516 Z M86.9839863,161.269531 C88.3511738,161.269531 89.713804,160.781901 91.071877,159.806641 C91.837502,159.259766 92.4253926,158.726563 92.8355488,158.207031 L92.8355488,158.207031 L92.4800801,157.892578 C91.650653,158.576172 91.0171895,159.05013 90.5796895,159.314453 C89.8140645,159.770182 89.0894551,159.998047 88.4058613,159.998047 C87.6858093,159.998047 87.0637389,159.77474 86.5396504,159.328125 C86.0155619,158.88151 85.7535176,158.257161 85.7535176,157.455078 C85.7535176,157.117839 85.776304,156.837565 85.821877,156.614258 C85.8674499,156.390951 85.9494811,156.092448 86.0679707,155.71875 L86.0679707,155.71875 L86.8472676,155.623047 C88.5425801,155.413411 90.15814,154.841471 91.6939473,153.907227 C93.2297546,152.972982 93.9976582,151.849609 93.9976582,150.537109 C93.9976582,149.889974 93.7880228,149.402344 93.368752,149.074219 C92.9494811,148.746094 92.384377,148.582031 91.6734395,148.582031 C89.7502624,148.582031 87.8863301,149.529948 86.0816426,151.425781 C84.2587259,153.321615 83.3472676,155.28125 83.3472676,157.304688 C83.3472676,158.580729 83.7118509,159.560547 84.4410176,160.244141 C85.1701843,160.927734 86.0178405,161.269531 86.9839863,161.269531 Z M86.259377,155.103516 C86.432554,154.638672 86.5966165,154.223958 86.7515645,153.859375 C87.0341165,153.175781 87.416929,152.460286 87.900002,151.712891 C88.3557311,151.07487 88.8684264,150.50293 89.4380879,149.99707 C90.0077494,149.491211 90.588804,149.238281 91.181252,149.238281 C91.5002624,149.238281 91.7417988,149.34082 91.9058613,149.545898 C92.0699238,149.750977 92.1519551,150.026693 92.1519551,150.373047 C92.1519551,151.330078 91.6050801,152.293945 90.5113301,153.264648 C89.4175801,154.235352 88.0002624,154.848307 86.259377,155.103516 Z M104.388283,161.228516 C105.071877,161.228516 105.787372,160.86849 106.534768,160.148438 C106.972268,159.738281 107.564716,159.027344 108.312111,158.015625 L108.312111,158.015625 L107.915627,157.660156 C107.213804,158.571615 106.707945,159.166341 106.398049,159.444336 C106.088153,159.722331 105.814716,159.861328 105.577736,159.861328 C105.431903,159.861328 105.327085,159.806641 105.263283,159.697266 C105.199481,159.587891 105.16758,159.464844 105.16758,159.328125 C105.16758,159.246094 105.190367,159.107096 105.235939,158.911133 C105.281512,158.715169 105.322528,158.548828 105.358986,158.412109 L105.358986,158.412109 L107.150002,151.863281 C107.222919,151.589844 107.282163,151.334635 107.327736,151.097656 C107.373309,150.860677 107.396096,150.632813 107.396096,150.414063 C107.396096,149.630208 107.118101,149.087891 106.562111,148.787109 C106.270445,148.632161 105.924091,148.554688 105.523049,148.554688 C104.483986,148.554688 103.308205,149.288411 101.995705,150.755859 C101.248309,151.585286 100.318622,152.852214 99.2066426,154.556641 L99.2066426,154.556641 L101.025002,148.677734 C101.006773,148.632161 100.970314,148.591146 100.915627,148.554688 L100.915627,148.554688 L98.4683613,149.087891 C98.1766947,149.151693 97.9055358,149.20638 97.6548848,149.251953 C97.4042337,149.297526 96.9826843,149.365885 96.3902363,149.457031 L96.3902363,149.457031 L96.3902363,149.921875 C96.5178405,149.903646 96.6340514,149.887695 96.7388692,149.874023 C96.8436869,149.860352 96.9507832,149.853516 97.0601582,149.853516 C97.4976582,149.853516 97.7916035,149.928711 97.9419942,150.079102 C98.0923848,150.229492 98.1675801,150.436849 98.1675801,150.701172 C98.1675801,150.874349 98.1516296,151.036133 98.1197285,151.186523 C98.0878275,151.336914 97.9716165,151.767578 97.7710957,152.478516 L97.7710957,152.478516 L95.4058613,160.927734 L97.525002,160.927734 C98.1265645,158.94987 98.5663431,157.584961 98.8443379,156.833008 C99.1223327,156.081055 99.5028665,155.308594 99.9859395,154.515625 C100.614846,153.494792 101.234637,152.615234 101.845314,151.876953 C102.884377,150.63737 103.745705,150.017578 104.429299,150.017578 C104.693622,150.017578 104.878192,150.097331 104.98301,150.256836 C105.087827,150.416341 105.140236,150.605469 105.140236,150.824219 C105.140236,150.924479 105.124286,151.09082 105.092385,151.323242 C105.060484,151.555664 104.99896,151.854167 104.907814,152.21875 L104.907814,152.21875 L103.185158,158.863281 C103.1487,158.990885 103.119077,159.141276 103.096291,159.314453 C103.073505,159.48763 103.062111,159.651693 103.062111,159.806641 C103.062111,160.344401 103.205666,160.71582 103.492775,160.920898 C103.779885,161.125977 104.078387,161.228516 104.388283,161.228516 Z M113.685158,166.724609 C115.708596,166.724609 117.221617,166.312174 118.224221,165.487305 C119.226825,164.662435 119.728127,163.703125 119.728127,162.609375 C119.728127,161.151042 118.73008,160.04362 116.733986,159.287109 C114.728778,158.539714 113.726174,158.011068 113.726174,157.701172 C113.726174,157.491536 113.849221,157.254557 114.095314,156.990234 C114.332294,156.725911 114.519143,156.59375 114.655861,156.59375 C114.829038,156.630208 114.974872,156.655273 115.093361,156.668945 C115.211851,156.682617 115.339455,156.689453 115.476174,156.689453 C116.797788,156.689453 118.030536,156.265625 119.174416,155.417969 C120.318296,154.570313 120.890236,153.408203 120.890236,151.931641 C120.890236,151.630859 120.876564,151.398438 120.849221,151.234375 C120.821877,151.070313 120.780861,150.888021 120.726174,150.6875 L120.726174,150.6875 L122.120705,150.6875 L122.120705,149.59375 L120.275002,149.59375 C120.174742,149.420573 119.837502,149.204102 119.263283,148.944336 C118.689064,148.68457 117.987242,148.554688 117.157814,148.554688 C115.571877,148.554688 114.241148,149.010417 113.165627,149.921875 C112.090106,150.833333 111.552346,151.977214 111.552346,153.353516 C111.552346,154.210286 111.807554,154.907552 112.317971,155.445313 C112.737242,155.846354 113.238544,156.15625 113.821877,156.375 C113.165627,156.821615 112.691669,157.181641 112.400002,157.455078 C111.880471,157.938151 111.620705,158.366536 111.620705,158.740234 C111.620705,159.004557 111.693622,159.216471 111.839455,159.375977 C111.985288,159.535482 112.172137,159.688151 112.400002,159.833984 C111.260679,160.444661 110.428973,161.057617 109.904885,161.672852 C109.380796,162.288086 109.118752,162.9375 109.118752,163.621094 C109.118752,164.486979 109.528908,165.220703 110.349221,165.822266 C111.169533,166.423828 112.281512,166.724609 113.685158,166.724609 Z M115.585549,156.115234 C114.829038,156.115234 114.30495,155.83724 114.013283,155.28125 C113.840106,154.94401 113.753518,154.492839 113.753518,153.927734 C113.753518,152.92513 114.065692,151.88151 114.690041,150.796875 C115.31439,149.71224 116.136981,149.169922 117.157814,149.169922 C117.68646,149.169922 118.082945,149.34082 118.347268,149.682617 C118.611591,150.024414 118.743752,150.496094 118.743752,151.097656 C118.743752,152.355469 118.422463,153.506185 117.779885,154.549805 C117.137307,155.593424 116.405861,156.115234 115.585549,156.115234 Z M114.232033,166.123047 C113.42995,166.123047 112.755471,166.004557 112.208596,165.767578 C111.160419,165.311849 110.63633,164.477865 110.63633,163.265625 C110.63633,162.463542 110.978127,161.745768 111.661721,161.112305 C112.345314,160.478841 112.805601,160.162109 113.04258,160.162109 C113.179299,160.162109 113.691994,160.333008 114.580666,160.674805 C115.469338,161.016602 116.100523,161.278646 116.474221,161.460938 C116.920835,161.688802 117.244403,161.902995 117.444924,162.103516 C117.818622,162.477214 118.005471,162.9375 118.005471,163.484375 C118.005471,164.204427 117.647723,164.824219 116.932229,165.34375 C116.216734,165.863281 115.316669,166.123047 114.232033,166.123047 Z M125.278908,161.228516 C125.816669,161.228516 126.384051,160.998372 126.981057,160.538086 C127.578062,160.077799 128.268492,159.259766 129.052346,158.083984 L129.052346,158.083984 L129.243752,157.796875 L128.888283,157.591797 C128.30495,158.348307 127.890236,158.854167 127.644143,159.109375 C127.215757,159.583333 126.883075,159.820313 126.646096,159.820313 C126.472919,159.820313 126.349872,159.745117 126.276955,159.594727 C126.204038,159.444336 126.190367,159.287109 126.235939,159.123047 L126.235939,159.123047 L128.696877,149.921875 L131.021096,149.921875 L131.185158,149.005859 L128.956643,149.005859 L129.735939,146.025391 C129.745054,145.970703 129.747333,145.918294 129.742775,145.868164 C129.738218,145.818034 129.722268,145.761068 129.694924,145.697266 C129.658466,145.679036 129.594663,145.660807 129.503518,145.642578 C129.457945,145.642578 129.41465,145.653971 129.373635,145.676758 C129.332619,145.699544 129.298439,145.729167 129.271096,145.765625 L129.271096,145.765625 L129.052346,146.025391 C128.177346,147.064453 127.486916,147.766276 126.981057,148.130859 C126.475197,148.495443 125.761981,148.873698 124.841408,149.265625 C124.695575,149.329427 124.604429,149.393229 124.567971,149.457031 C124.531512,149.520833 124.513283,149.675781 124.513283,149.921875 L124.513283,149.921875 L126.591408,149.921875 L124.021096,159.478516 C123.993752,159.578776 123.975523,159.676758 123.966408,159.772461 C123.957294,159.868164 123.952736,159.952474 123.952736,160.025391 C123.952736,160.335286 124.057554,160.613281 124.267189,160.859375 C124.476825,161.105469 124.814064,161.228516 125.278908,161.228516 Z M140.030861,161.228516 C140.832945,161.228516 141.630471,160.841146 142.423439,160.066406 C142.870054,159.628906 143.412372,158.936198 144.050393,157.988281 L144.050393,157.988281 L143.694924,157.660156 C143.047788,158.489583 142.605731,159.027344 142.368752,159.273438 C141.985939,159.665365 141.653257,159.861328 141.370705,159.861328 C141.233986,159.861328 141.129169,159.822591 141.056252,159.745117 C140.983335,159.667643 140.946877,159.551432 140.946877,159.396484 C140.946877,159.259766 140.965106,159.107096 141.001564,158.938477 C141.038023,158.769857 141.083596,158.594401 141.138283,158.412109 L141.138283,158.412109 L142.983986,151.863281 C143.047788,151.653646 143.102476,151.412109 143.148049,151.138672 C143.193622,150.865234 143.216408,150.641927 143.216408,150.46875 C143.216408,149.748698 143.013609,149.249674 142.60801,148.97168 C142.202411,148.693685 141.780861,148.554688 141.343361,148.554688 C140.276955,148.554688 139.105731,149.229167 137.829689,150.578125 C137.100523,151.361979 136.161721,152.601563 135.013283,154.296875 L135.013283,154.296875 L138.226174,142.087891 C138.226174,142.005859 138.171486,141.9375 138.062111,141.882813 C138.016538,141.882813 137.952736,141.891927 137.870705,141.910156 C137.788674,141.928385 137.209898,142.042318 136.134377,142.251953 C135.870054,142.297526 135.55788,142.345378 135.197854,142.395508 C134.837827,142.445638 134.366148,142.511719 133.782814,142.59375 L133.782814,142.59375 L133.782814,143.044922 C134.502867,143.008464 134.990497,143.028971 135.245705,143.106445 C135.500913,143.183919 135.628518,143.41862 135.628518,143.810547 C135.628518,143.883464 135.62396,143.960938 135.614846,144.042969 C135.605731,144.125 135.587502,144.22526 135.560158,144.34375 L135.560158,144.34375 L131.185158,160.927734 L133.304299,160.927734 C133.94232,158.630859 134.372984,157.163411 134.596291,156.525391 C134.819598,155.88737 135.150002,155.208333 135.587502,154.488281 C136.225523,153.467448 137.009377,152.467122 137.939064,151.487305 C138.868752,150.507487 139.638934,150.017578 140.249611,150.017578 C140.477476,150.017578 140.664325,150.08138 140.810158,150.208984 C140.946877,150.336589 141.015236,150.514323 141.015236,150.742188 C141.015236,150.824219 141.0084,150.903971 140.994729,150.981445 C140.981057,151.058919 140.965106,151.134115 140.946877,151.207031 L140.946877,151.207031 L138.841408,159.21875 C138.80495,159.346354 138.779885,159.462565 138.766213,159.567383 C138.752541,159.672201 138.745705,159.783854 138.745705,159.902344 C138.745705,160.330729 138.868752,160.658854 139.114846,160.886719 C139.360939,161.114583 139.666278,161.228516 140.030861,161.228516 Z M155.985939,161.255859 C158.045835,161.255859 160.037372,160.294271 161.960549,158.371094 C163.938413,156.393229 164.927346,154.269531 164.927346,152 C164.927346,151.02474 164.624286,150.206706 164.018166,149.545898 C163.412046,148.885091 162.607684,148.554688 161.60508,148.554688 C160.538674,148.554688 159.504169,149.014974 158.501564,149.935547 C157.927346,150.464193 157.23008,151.311849 156.409768,152.478516 L156.409768,152.478516 L159.130471,142.142578 L159.157814,141.964844 C159.157814,141.891927 159.137307,141.83724 159.096291,141.800781 C159.055275,141.764323 159.011981,141.746094 158.966408,141.746094 C158.756773,141.746094 158.40814,141.800781 157.92051,141.910156 C157.595423,141.983073 157.36452,142.033709 157.227801,142.062066 L157.122477,142.082996 L157.122477,142.082996 L157.093361,142.087891 C156.510028,142.179036 156.047463,142.242839 155.705666,142.279297 C155.363869,142.315755 155.047137,142.356771 154.755471,142.402344 L154.755471,142.402344 L154.755471,142.880859 C155.256773,142.908203 155.582619,142.926432 155.73301,142.935547 C155.8834,142.944661 155.990497,142.958333 156.054299,142.976563 C156.273049,143.040365 156.412046,143.129232 156.471291,143.243164 C156.530536,143.357096 156.560158,143.473307 156.560158,143.591797 C156.560158,143.701172 156.548765,143.835612 156.525979,143.995117 C156.503192,144.154622 156.464455,144.334635 156.409768,144.535156 L156.409768,144.535156 L152.321877,159.642578 C152.258075,159.888672 152.618101,160.216797 153.401955,160.626953 C154.185809,161.046224 155.047137,161.255859 155.985939,161.255859 Z M156.122658,160.613281 C155.630471,160.613281 155.270445,160.506185 155.04258,160.291992 C154.814716,160.077799 154.700783,159.792969 154.700783,159.4375 C154.700783,157.951823 155.275002,156.083333 156.423439,153.832031 C157.745054,151.24349 159.130471,149.949219 160.579689,149.949219 C161.144794,149.949219 161.614195,150.161133 161.987893,150.584961 C162.361591,151.008789 162.548439,151.576172 162.548439,152.287109 C162.548439,153.854818 161.914976,155.582031 160.648049,157.46875 C159.244403,159.565104 157.735939,160.613281 156.122658,160.613281 Z" id="lengthb" fill="#000000" fill-rule="nonzero" transform="translate(120.391213, 154.235352) rotate(-10.000000) translate(-120.391213, -154.235352) "></path>
        </g>
        <g id="Group-3" transform="translate(317.000000, 8.000000)">
            <path d="M90.8177484,123.830886 C112.103507,132.832099 120.319549,148.832099 115.465874,171.830886 C63.2199636,175.400291 36.5304065,177.156135 35.3972024,177.09842 L90.8177484,123.830886 Z" id="Path-3" fill-opacity="0.3" fill="#FF8F00" transform="translate(76.107475, 150.465342) rotate(-8.000000) translate(-76.107475, -150.465342) "></path>
            <path d="M90.1814286,120 C111.467187,129.001213 119.683229,145.001213 114.829554,168" id="Path-3" stroke="#FF8F00" stroke-width="6" stroke-linecap="round" transform="translate(103.181429, 144.000000) rotate(-8.000000) translate(-103.181429, -144.000000) "></path>
            <line x1="39.5" y1="183" x2="128.5" y2="66" id="Line" stroke="#D6AD18" stroke-width="10" stroke-linecap="round"></line>
            <line x1="39.5" y1="183" x2="194.5" y2="152" id="Line" stroke="#FFC800" stroke-width="10" stroke-linecap="round"></line>
            <line x1="39.5" y1="183" x2="194.5" y2="152" id="Line" stroke="#FFC800" stroke-width="10" stroke-linecap="round"></line>
            <polygon id="Rectangle" fill="#D6AD18" transform="translate(129.307361, 65.505003) rotate(-190.000000) translate(-129.307361, -65.505003) " points="118.807361 55.0050032 129.307361 65.3034551 139.807361 76.0050032 118.807361 76.0050032"></polygon>
            <polygon id="Rectangle-Copy-3" fill="#FFC800" transform="translate(194.307361, 151.505003) rotate(-147.000000) translate(-194.307361, -151.505003) " points="183.807361 141.005003 194.307361 151.303455 204.807361 162.005003 183.807361 162.005003"></polygon>
            <path id="Line-Copy" d="M7.5,185 C6.3954305,185 5.5,184.104569 5.5,183 C5.5,181.945638 6.31587779,181.081835 7.35073766,181.005486 L7.5,181 L15.5,181 L15.5,55 L7.5,55 C6.3954305,55 5.5,54.1045695 5.5,53 C5.5,51.9456382 6.31587779,51.0818349 7.35073766,51.0054857 L7.5,51 L27.5,51 C28.6045695,51 29.5,51.8954305 29.5,53 C29.5,54.0543618 28.6841222,54.9181651 27.6492623,54.9945143 L27.5,55 L19.5,55 L19.5,181 L27.5,181 C28.6045695,181 29.5,181.895431 29.5,183 C29.5,184.054362 28.6841222,184.918165 27.6492623,184.994514 L27.5,185 L7.5,185 Z" fill="#B18E00" fill-rule="nonzero"></path>
            <path id="Line-Copy-3" d="M215.507889,146.960953 L235.507736,147.039077 C236.612297,147.043392 237.504223,147.942314 237.499908,149.046875 C237.49579,150.101228 236.676544,150.961838 235.641394,151.034144 L235.492111,151.039047 L227.491,151.007 L227.347,188.007 L235.34758,188.039077 C236.452141,188.043392 237.344067,188.942314 237.339752,190.046875 C237.335634,191.101228 236.516388,191.961838 235.481238,192.034144 L235.331955,192.039047 L215.332108,191.960923 C214.227547,191.956608 213.335621,191.057686 213.339935,189.953125 C213.34425,188.848564 214.243171,187.956638 215.347732,187.960953 L223.347,187.992 L223.492,150.992 L215.492264,150.960923 C214.387703,150.956608 213.495777,150.057686 213.500092,148.953125 C213.504406,147.848564 214.403328,146.956638 215.507889,146.960953 Z" fill="#B18E00" fill-rule="nonzero"></path>
            <path id="Line-Copy-2" d="M208.339844,192 C209.394206,192 210.258009,192.815878 210.334358,193.850738 L210.339844,194 L210.339844,214 C210.339844,215.104569 209.444413,216 208.339844,216 C207.285482,216 206.421679,215.184122 206.345329,214.149262 L206.339844,214 L206.339,206 L38.339,206 L38.3398438,214 C38.3398438,215.104569 37.4444132,216 36.3398438,216 C35.285482,216 34.4216786,215.184122 34.3453295,214.149262 L34.3398438,214 L34.3398438,194 C34.3398438,192.895431 35.2352743,192 36.3398438,192 C37.3942055,192 38.2580089,192.815878 38.334358,193.850738 L38.3398438,194 L38.339,202 L206.339,202 L206.339844,194 C206.339844,192.895431 207.235274,192 208.339844,192 Z" fill="#B18E00" fill-rule="nonzero"></path>
            <path id="Line-Copy-4" d="M136.339844,25 C137.394206,25 138.258009,25.8158778 138.334358,26.8507377 L138.339844,27 L138.339844,47 C138.339844,48.1045695 137.444413,49 136.339844,49 C135.285482,49 134.421679,48.1841222 134.345329,47.1492623 L134.339844,47 L134.339,39 L34.339,39 L34.3398438,47 C34.3398438,48.1045695 33.4444132,49 32.3398438,49 C31.285482,49 30.4216786,48.1841222 30.3453295,47.1492623 L30.3398438,47 L30.3398438,27 C30.3398438,25.8954305 31.2352743,25 32.3398438,25 C33.3942055,25 34.2580089,25.8158778 34.334358,26.8507377 L34.3398438,27 L34.339,35 L134.339,35 L134.339844,27 C134.339844,25.8954305 135.235274,25 136.339844,25 Z" fill="#B18E00" fill-rule="nonzero"></path>
            <rect id="Rectangle-Copy" fill-opacity="0.75" fill="#DEFFDE" x="90.3398438" y="189" width="65" height="46"></rect>
            <rect id="Rectangle-Copy-5" fill-opacity="0.75" fill="#DEFFDE" x="220.339844" y="163" width="15" height="13"></rect>
            <rect id="Rectangle-Copy-4" fill-opacity="0.75" fill="#DEFFDE" x="4.33984375" y="90" width="26" height="56"></rect>
            <rect id="Rectangle-Copy-2" fill-opacity="0.75" fill="#DEFFDE" x="52.3398438" y="5" width="65" height="46"></rect>
            <g id="Group-Copy" transform="translate(105.339844, 176.000000)" fill-rule="nonzero">
                <path d="M7.07519531,44.5390625 C10.4593099,44.5390625 13.7311198,42.9593099 16.890625,39.7998047 C20.139974,36.5504557 21.7646484,33.0615234 21.7646484,29.3330078 C21.7646484,27.7307943 21.2667643,26.3868815 20.2709961,25.3012695 C19.2752279,24.2156576 17.953776,23.6728516 16.3066406,23.6728516 C14.5546875,23.6728516 12.8551432,24.4290365 11.2080078,25.9414062 C10.2646484,26.8098958 9.11914062,28.202474 7.77148438,30.1191406 L7.77148438,30.1191406 L12.2412109,13.1386719 L12.2861328,12.8466797 C12.2861328,12.726888 12.2524414,12.6370443 12.1850586,12.5771484 C12.1176758,12.5172526 12.0465495,12.4873047 11.9716797,12.4873047 C11.6272786,12.4873047 11.0545247,12.5771484 10.253418,12.7568359 C9.4523112,12.9365234 8.99934896,13.0338542 8.89453125,13.0488281 C7.93619792,13.1985677 7.17626953,13.3033854 6.61474609,13.3632812 C6.05322266,13.4231771 5.5328776,13.4905599 5.05371094,13.5654297 L5.05371094,13.5654297 L5.05371094,14.3515625 C5.87727865,14.3964844 6.41259766,14.4264323 6.65966797,14.4414062 C6.90673828,14.4563802 7.08268229,14.4788411 7.1875,14.5087891 C7.546875,14.6136068 7.77522786,14.7596029 7.87255859,14.9467773 C7.96988932,15.1339518 8.01855469,15.3248698 8.01855469,15.5195312 C8.01855469,15.6992188 7.99983724,15.9200846 7.96240234,16.1821289 C7.92496745,16.4441732 7.86132812,16.7399089 7.77148438,17.0693359 L7.77148438,17.0693359 L1.05566406,41.8886719 C0.950846354,42.2929688 1.54231771,42.8320312 2.83007812,43.5058594 C4.11783854,44.1946615 5.5328776,44.5390625 7.07519531,44.5390625 Z M7.29980469,43.4833984 C6.49121094,43.4833984 5.89973958,43.3074544 5.52539062,42.9555664 C5.15104167,42.6036784 4.96386719,42.1357422 4.96386719,41.5517578 C4.96386719,39.1110026 5.90722656,36.0413411 7.79394531,32.3427734 C9.96516927,28.0901693 12.2412109,25.9638672 14.6220703,25.9638672 C15.5504557,25.9638672 16.3216146,26.3120117 16.9355469,27.0083008 C17.5494792,27.7045898 17.8564453,28.6367188 17.8564453,29.8046875 C17.8564453,32.3802083 16.8157552,35.2177734 14.734375,38.3173828 C12.4283854,41.7613932 9.95019531,43.4833984 7.29980469,43.4833984 Z" id="b" fill="#000000"></path>
                <path d="M30.2607422,47.3007812 C30.9807943,47.3007812 31.7373047,46.8268229 32.5302734,45.8789062 C32.9495443,45.3776042 33.3551432,44.7714844 33.7470703,44.0605469 L33.7470703,44.0605469 L33.3642578,43.828125 C32.8538411,44.5390625 32.4710286,45.03125 32.2158203,45.3046875 C31.960612,45.578125 31.7099609,45.7148438 31.4638672,45.7148438 C31.1995443,45.7148438 30.9625651,45.46875 30.7529297,44.9765625 C30.6253255,44.6757812 30.4703776,44.1289062 30.2880859,43.3359375 C30.0875651,42.4973958 29.9029948,41.7021484 29.734375,40.9501953 C29.5657552,40.1982422 29.4814453,39.7539062 29.4814453,39.6171875 C29.4814453,39.453125 29.8460286,38.8401693 30.5751953,37.7783203 C31.304362,36.7164714 31.8740234,36.1855469 32.2841797,36.1855469 C32.3297526,36.1855469 32.398112,36.2014974 32.4892578,36.2333984 C32.5804036,36.2652995 32.6761068,36.3040365 32.7763672,36.3496094 L32.7763672,36.3496094 L33.1318359,36.5 C33.2320964,36.5455729 33.3277995,36.5797526 33.4189453,36.6025391 C33.5100911,36.6253255 33.6057943,36.6367188 33.7060547,36.6367188 C33.9794922,36.6367188 34.2027995,36.5501302 34.3759766,36.3769531 C34.5491536,36.203776 34.6357422,35.9622396 34.6357422,35.6523438 C34.6357422,35.1966146 34.4625651,34.8867188 34.1162109,34.7226562 C33.9248047,34.6315104 33.6741536,34.5859375 33.3642578,34.5859375 C33.0361328,34.5859375 32.6897786,34.6998698 32.3251953,34.9277344 C31.960612,35.155599 31.5732422,35.5019531 31.1630859,35.9667969 C30.7073568,36.4772135 30.0693359,37.3613281 29.2490234,38.6191406 L29.2490234,38.6191406 L28.9619141,37.0605469 C28.7613932,35.985026 28.5152995,35.264974 28.2236328,34.9003906 C28.0322266,34.672526 27.7451172,34.5585938 27.3623047,34.5585938 C27.1253255,34.5585938 26.8404948,34.5996094 26.5078125,34.6816406 C26.1751302,34.7636719 25.8128255,34.8730469 25.4208984,35.0097656 L25.4208984,35.0097656 L23.9033203,35.5292969 L24.0263672,35.953125 C24.2998047,35.8802083 24.555013,35.8164062 24.7919922,35.7617188 C25.1656901,35.6705729 25.4163411,35.625 25.5439453,35.625 C25.9176432,35.625 26.1728516,35.7275391 26.3095703,35.9326172 C26.4462891,36.1376953 26.601237,36.5638021 26.7744141,37.2109375 C26.9475911,37.8489583 27.1389974,38.6259766 27.3486328,39.5419922 C27.4384766,39.9345703 27.5090681,40.2488839 27.5604074,40.484933 L27.6053292,40.694894 C27.6438337,40.8787667 27.6630859,40.984375 27.6630859,41.0117188 C26.4690755,42.7434896 25.7034505,43.8326823 25.3662109,44.2792969 C24.8557943,44.9628906 24.5390625,45.3616536 24.4160156,45.4755859 C24.2929688,45.5895182 24.117513,45.6464844 23.8896484,45.6464844 C23.8167318,45.6464844 23.750651,45.6396484 23.6914062,45.6259766 C23.6321615,45.6123047 23.570638,45.5872396 23.5068359,45.5507812 L23.5068359,45.5507812 L23.0283203,45.2910156 C22.9007161,45.218099 22.7822266,45.1656901 22.6728516,45.1337891 C22.5634766,45.101888 22.4541016,45.0859375 22.3447266,45.0859375 C22.116862,45.0859375 21.8935547,45.1611328 21.6748047,45.3115234 C21.4560547,45.4619141 21.3466797,45.7148438 21.3466797,46.0703125 C21.3466797,46.3346354 21.4059245,46.5625 21.5244141,46.7539062 C21.7340495,47.1184896 22.1305339,47.3007812 22.7138672,47.3007812 C23.1513672,47.3007812 23.5182292,47.1914062 23.8144531,46.9726562 C24.1106771,46.7539062 24.5322266,46.3255208 25.0791016,45.6875 L25.0791016,45.6875 L27.8818359,42.0097656 L28.7294922,45.3867188 C28.8753255,45.9700521 29.0257161,46.3893229 29.1806641,46.6445312 C29.444987,47.0820312 29.805013,47.3007812 30.2607422,47.3007812 Z" id="x" fill="#FF0000"></path>
            </g>
            <g id="Group" transform="translate(0.000000, 78.000000)" fill-rule="nonzero">
                <path d="M5.48046875,44.5166016 C6.19921875,44.5166016 6.94791667,44.3818359 7.7265625,44.1123047 C8.72981771,43.7080078 9.77799479,43.0192057 10.8710938,42.0458984 C11.7994792,41.2373047 12.5818685,40.4025065 13.2182617,39.5415039 C13.8546549,38.6805013 14.3076172,38.0253906 14.5771484,37.5761719 C14.382487,38.264974 14.184082,39.1147461 13.9819336,40.1254883 C13.7797852,41.1362305 13.6787109,41.9111328 13.6787109,42.4501953 C13.6787109,43.0341797 13.832194,43.5208333 14.1391602,43.9101562 C14.4461263,44.2994792 14.8766276,44.4941406 15.4306641,44.4941406 C16.2841797,44.4941406 17.1826172,44.1385091 18.1259766,43.4272461 C19.0693359,42.7159831 20.3196615,41.3645833 21.8769531,39.3730469 L21.8769531,39.3730469 L21.3378906,38.9013672 L19.9453125,40.3388672 C19.7356771,40.5485026 19.5559896,40.7244466 19.40625,40.8666992 C19.2565104,41.0089518 19.1217448,41.132487 19.0019531,41.2373047 L19.0019531,41.2373047 L18.6201172,41.5517578 C18.3955078,41.7314453 18.2045898,41.8662109 18.0473633,41.9560547 C17.8901367,42.0458984 17.7441406,42.0908203 17.609375,42.0908203 C17.4446615,42.0908203 17.3061523,42.0421549 17.1938477,41.9448242 C17.081543,41.8474935 17.0253906,41.6940104 17.0253906,41.484375 C17.0253906,41.1549479 17.3024089,39.8372396 17.8564453,37.53125 C18.1708984,36.2584635 18.5527344,34.7460938 19.0019531,32.9941406 L19.0019531,32.9941406 L21.0683594,24.953125 C21.1282552,24.7434896 21.1731771,24.5825195 21.203125,24.4702148 C21.2330729,24.3579102 21.2779948,24.2044271 21.3378906,24.0097656 C21.3678385,23.875 21.371582,23.7814128 21.3491211,23.7290039 C21.3266602,23.6765951 21.2480469,23.6503906 21.1132812,23.6503906 L21.1132812,23.6503906 L18.5751953,23.9423828 C18.4104818,23.9573568 18.3056641,23.9985352 18.2607422,24.065918 C18.2158203,24.1333008 18.1634115,24.2643229 18.1035156,24.4589844 L18.1035156,24.4589844 L17.609375,26.1660156 L17.4970703,25.8515625 C17.3024089,25.3125 17.0328776,24.8782552 16.6884766,24.5488281 C16.0445964,23.9348958 15.1311849,23.6279297 13.9482422,23.6279297 C10.8336589,23.6279297 7.82389323,25.4023438 4.91894531,28.9511719 C2.10384115,32.3652344 0.696289062,35.6445312 0.696289062,38.7890625 C0.696289062,40.6158854 1.19042969,42.027181 2.17871094,43.0229492 C3.16699219,44.0187174 4.26757812,44.5166016 5.48046875,44.5166016 Z M7.34472656,42.203125 C6.58105469,42.203125 5.94091797,41.9298503 5.42431641,41.3833008 C4.90771484,40.8367513 4.64941406,39.9645182 4.64941406,38.7666016 C4.64941406,36.3857422 5.5703125,33.5481771 7.41210938,30.2539062 C9.50846354,26.5104167 11.7770182,24.6386719 14.2177734,24.6386719 C14.9215495,24.6386719 15.5205078,24.8932292 16.0146484,25.4023438 C16.5087891,25.9114583 16.7558594,26.7050781 16.7558594,27.7832031 C16.7558594,30.4485677 15.797526,33.4358724 13.8808594,36.7451172 C11.7845052,40.3837891 9.60579427,42.203125 7.34472656,42.203125 Z" id="a" fill="#000000"></path>
                <path d="M22.8232422,52.8105469 C23.7802734,52.8105469 24.9833984,51.9856771 26.4326172,50.3359375 C27.3440755,49.2877604 28.4332682,47.797526 29.7001953,45.8652344 C30.7119141,44.3157552 31.6279297,42.7161458 32.4482422,41.0664062 C33.5146484,38.90625 34.0478516,37.3385417 34.0478516,36.3632812 C34.0478516,35.7161458 33.9065755,35.258138 33.6240234,34.9892578 C33.3414714,34.7203776 32.9723307,34.5859375 32.5166016,34.5859375 C32.1520182,34.5859375 31.8785807,34.6816406 31.6962891,34.8730469 C31.5139974,35.0644531 31.4228516,35.3014323 31.4228516,35.5839844 C31.4228516,35.921224 31.5208333,36.1901042 31.7167969,36.390625 C31.9127604,36.5911458 32.0836589,36.7278646 32.2294922,36.8007812 L32.2294922,36.8007812 L32.4619141,36.9238281 C32.6624349,37.0332031 32.7900391,37.1630859 32.8447266,37.3134766 C32.8994141,37.4638672 32.9267578,37.6165365 32.9267578,37.7714844 C32.9267578,38.4459635 32.4892578,39.6263021 31.6142578,41.3125 C31.1676432,42.1692708 30.4658203,43.3997396 29.5087891,45.0039062 L29.5087891,45.0039062 L28.9619141,41.75 C28.8160807,40.9023438 28.4514974,39.5442708 27.8681641,37.6757812 C27.2210286,35.5976562 26.7835286,34.5722656 26.5556641,34.5996094 L26.5556641,34.5996094 L26.2685547,34.6269531 L22.5361328,35.3378906 L22.5361328,35.7890625 C22.8551432,35.7526042 23.0807292,35.7275391 23.2128906,35.7138672 C23.3450521,35.7001953 23.4384766,35.6933594 23.4931641,35.6933594 C24.2132161,35.6933594 24.7578125,35.985026 25.1269531,36.5683594 C25.4960938,37.1516927 25.9039714,38.2636719 26.3505859,39.9042969 C26.6695964,41.0709635 27,42.4016927 27.3417969,43.8964844 C27.6835938,45.391276 27.8544922,46.3938802 27.8544922,46.9042969 C27.8544922,47.4420573 27.360026,48.3011068 26.3710938,49.4814453 C25.3821615,50.6617839 24.664388,51.2519531 24.2177734,51.2519531 C24.1357422,51.2519531 24.0605469,51.2405599 23.9921875,51.2177734 C23.9238281,51.194987 23.8623047,51.1608073 23.8076172,51.1152344 L23.8076172,51.1152344 L23.6162109,50.9785156 C23.4248047,50.8144531 23.242513,50.6891276 23.0693359,50.6025391 C22.8961589,50.5159505 22.695638,50.4726562 22.4677734,50.4726562 C22.1214193,50.4726562 21.8570964,50.577474 21.6748047,50.7871094 C21.492513,50.9967448 21.4013672,51.2473958 21.4013672,51.5390625 C21.4013672,51.9309896 21.5449219,52.2408854 21.8320312,52.46875 C22.1191406,52.6966146 22.4495443,52.8105469 22.8232422,52.8105469 Z" id="y" fill="#00DB00"></path>
            </g>
            <g id="Group-Copy-3" transform="translate(68.000000, 0.000000)" fill-rule="nonzero">
                <path d="M5.48046875,44.5166016 C6.19921875,44.5166016 6.94791667,44.3818359 7.7265625,44.1123047 C8.72981771,43.7080078 9.77799479,43.0192057 10.8710938,42.0458984 C11.7994792,41.2373047 12.5818685,40.4025065 13.2182617,39.5415039 C13.8546549,38.6805013 14.3076172,38.0253906 14.5771484,37.5761719 C14.382487,38.264974 14.184082,39.1147461 13.9819336,40.1254883 C13.7797852,41.1362305 13.6787109,41.9111328 13.6787109,42.4501953 C13.6787109,43.0341797 13.832194,43.5208333 14.1391602,43.9101562 C14.4461263,44.2994792 14.8766276,44.4941406 15.4306641,44.4941406 C16.2841797,44.4941406 17.1826172,44.1385091 18.1259766,43.4272461 C19.0693359,42.7159831 20.3196615,41.3645833 21.8769531,39.3730469 L21.8769531,39.3730469 L21.3378906,38.9013672 L19.9453125,40.3388672 C19.7356771,40.5485026 19.5559896,40.7244466 19.40625,40.8666992 C19.2565104,41.0089518 19.1217448,41.132487 19.0019531,41.2373047 L19.0019531,41.2373047 L18.6201172,41.5517578 C18.3955078,41.7314453 18.2045898,41.8662109 18.0473633,41.9560547 C17.8901367,42.0458984 17.7441406,42.0908203 17.609375,42.0908203 C17.4446615,42.0908203 17.3061523,42.0421549 17.1938477,41.9448242 C17.081543,41.8474935 17.0253906,41.6940104 17.0253906,41.484375 C17.0253906,41.1549479 17.3024089,39.8372396 17.8564453,37.53125 C18.1708984,36.2584635 18.5527344,34.7460938 19.0019531,32.9941406 L19.0019531,32.9941406 L21.0683594,24.953125 C21.1282552,24.7434896 21.1731771,24.5825195 21.203125,24.4702148 C21.2330729,24.3579102 21.2779948,24.2044271 21.3378906,24.0097656 C21.3678385,23.875 21.371582,23.7814128 21.3491211,23.7290039 C21.3266602,23.6765951 21.2480469,23.6503906 21.1132812,23.6503906 L21.1132812,23.6503906 L18.5751953,23.9423828 C18.4104818,23.9573568 18.3056641,23.9985352 18.2607422,24.065918 C18.2158203,24.1333008 18.1634115,24.2643229 18.1035156,24.4589844 L18.1035156,24.4589844 L17.609375,26.1660156 L17.4970703,25.8515625 C17.3024089,25.3125 17.0328776,24.8782552 16.6884766,24.5488281 C16.0445964,23.9348958 15.1311849,23.6279297 13.9482422,23.6279297 C10.8336589,23.6279297 7.82389323,25.4023438 4.91894531,28.9511719 C2.10384115,32.3652344 0.696289062,35.6445312 0.696289062,38.7890625 C0.696289062,40.6158854 1.19042969,42.027181 2.17871094,43.0229492 C3.16699219,44.0187174 4.26757812,44.5166016 5.48046875,44.5166016 Z M7.34472656,42.203125 C6.58105469,42.203125 5.94091797,41.9298503 5.42431641,41.3833008 C4.90771484,40.8367513 4.64941406,39.9645182 4.64941406,38.7666016 C4.64941406,36.3857422 5.5703125,33.5481771 7.41210938,30.2539062 C9.50846354,26.5104167 11.7770182,24.6386719 14.2177734,24.6386719 C14.9215495,24.6386719 15.5205078,24.8932292 16.0146484,25.4023438 C16.5087891,25.9114583 16.7558594,26.7050781 16.7558594,27.7832031 C16.7558594,30.4485677 15.797526,33.4358724 13.8808594,36.7451172 C11.7845052,40.3837891 9.60579427,42.203125 7.34472656,42.203125 Z" id="a" fill="#000000"></path>
                <path d="M30.2607422,47.3007812 C30.9807943,47.3007812 31.7373047,46.8268229 32.5302734,45.8789062 C32.9495443,45.3776042 33.3551432,44.7714844 33.7470703,44.0605469 L33.7470703,44.0605469 L33.3642578,43.828125 C32.8538411,44.5390625 32.4710286,45.03125 32.2158203,45.3046875 C31.960612,45.578125 31.7099609,45.7148438 31.4638672,45.7148438 C31.1995443,45.7148438 30.9625651,45.46875 30.7529297,44.9765625 C30.6253255,44.6757812 30.4703776,44.1289062 30.2880859,43.3359375 C30.0875651,42.4973958 29.9029948,41.7021484 29.734375,40.9501953 C29.5657552,40.1982422 29.4814453,39.7539062 29.4814453,39.6171875 C29.4814453,39.453125 29.8460286,38.8401693 30.5751953,37.7783203 C31.304362,36.7164714 31.8740234,36.1855469 32.2841797,36.1855469 C32.3297526,36.1855469 32.398112,36.2014974 32.4892578,36.2333984 C32.5804036,36.2652995 32.6761068,36.3040365 32.7763672,36.3496094 L32.7763672,36.3496094 L33.1318359,36.5 C33.2320964,36.5455729 33.3277995,36.5797526 33.4189453,36.6025391 C33.5100911,36.6253255 33.6057943,36.6367188 33.7060547,36.6367188 C33.9794922,36.6367188 34.2027995,36.5501302 34.3759766,36.3769531 C34.5491536,36.203776 34.6357422,35.9622396 34.6357422,35.6523438 C34.6357422,35.1966146 34.4625651,34.8867188 34.1162109,34.7226562 C33.9248047,34.6315104 33.6741536,34.5859375 33.3642578,34.5859375 C33.0361328,34.5859375 32.6897786,34.6998698 32.3251953,34.9277344 C31.960612,35.155599 31.5732422,35.5019531 31.1630859,35.9667969 C30.7073568,36.4772135 30.0693359,37.3613281 29.2490234,38.6191406 L29.2490234,38.6191406 L28.9619141,37.0605469 C28.7613932,35.985026 28.5152995,35.264974 28.2236328,34.9003906 C28.0322266,34.672526 27.7451172,34.5585938 27.3623047,34.5585938 C27.1253255,34.5585938 26.8404948,34.5996094 26.5078125,34.6816406 C26.1751302,34.7636719 25.8128255,34.8730469 25.4208984,35.0097656 L25.4208984,35.0097656 L23.9033203,35.5292969 L24.0263672,35.953125 C24.2998047,35.8802083 24.555013,35.8164062 24.7919922,35.7617188 C25.1656901,35.6705729 25.4163411,35.625 25.5439453,35.625 C25.9176432,35.625 26.1728516,35.7275391 26.3095703,35.9326172 C26.4462891,36.1376953 26.601237,36.5638021 26.7744141,37.2109375 C26.9475911,37.8489583 27.1389974,38.6259766 27.3486328,39.5419922 C27.4384766,39.9345703 27.5090681,40.2488839 27.5604074,40.484933 L27.6053292,40.694894 C27.6438337,40.8787667 27.6630859,40.984375 27.6630859,41.0117188 C26.4690755,42.7434896 25.7034505,43.8326823 25.3662109,44.2792969 C24.8557943,44.9628906 24.5390625,45.3616536 24.4160156,45.4755859 C24.2929688,45.5895182 24.117513,45.6464844 23.8896484,45.6464844 C23.8167318,45.6464844 23.750651,45.6396484 23.6914062,45.6259766 C23.6321615,45.6123047 23.570638,45.5872396 23.5068359,45.5507812 L23.5068359,45.5507812 L23.0283203,45.2910156 C22.9007161,45.218099 22.7822266,45.1656901 22.6728516,45.1337891 C22.5634766,45.101888 22.4541016,45.0859375 22.3447266,45.0859375 C22.116862,45.0859375 21.8935547,45.1611328 21.6748047,45.3115234 C21.4560547,45.4619141 21.3466797,45.7148438 21.3466797,46.0703125 C21.3466797,46.3346354 21.4059245,46.5625 21.5244141,46.7539062 C21.7340495,47.1184896 22.1305339,47.3007812 22.7138672,47.3007812 C23.1513672,47.3007812 23.5182292,47.1914062 23.8144531,46.9726562 C24.1106771,46.7539062 24.5322266,46.3255208 25.0791016,45.6875 L25.0791016,45.6875 L27.8818359,42.0097656 L28.7294922,45.3867188 C28.8753255,45.9700521 29.0257161,46.3893229 29.1806641,46.6445312 C29.444987,47.0820312 29.805013,47.3007812 30.2607422,47.3007812 Z" id="x" fill="#FF0000"></path>
            </g>
            <g id="Group-Copy-2" transform="translate(232.339844, 152.000000)" fill-rule="nonzero">
                <path d="M6.07519531,32.5390625 C9.4593099,32.5390625 12.7311198,30.9593099 15.890625,27.7998047 C19.139974,24.5504557 20.7646484,21.0615234 20.7646484,17.3330078 C20.7646484,15.7307943 20.2667643,14.3868815 19.2709961,13.3012695 C18.2752279,12.2156576 16.953776,11.6728516 15.3066406,11.6728516 C13.5546875,11.6728516 11.8551432,12.4290365 10.2080078,13.9414062 C9.26464844,14.8098958 8.11914063,16.202474 6.77148438,18.1191406 L6.77148438,18.1191406 L11.2412109,1.13867188 L11.2861328,0.846679688 C11.2861328,0.726888021 11.2524414,0.637044271 11.1850586,0.577148438 C11.1176758,0.517252604 11.0465495,0.487304688 10.9716797,0.487304688 C10.6272786,0.487304688 10.0545247,0.577148438 9.25341797,0.756835938 C8.4523112,0.936523438 7.99934896,1.03385417 7.89453125,1.04882812 C6.93619792,1.19856771 6.17626953,1.30338542 5.61474609,1.36328125 C5.05322266,1.42317708 4.5328776,1.4905599 4.05371094,1.56542969 L4.05371094,1.56542969 L4.05371094,2.3515625 C4.87727865,2.39648438 5.41259766,2.42643229 5.65966797,2.44140625 C5.90673828,2.45638021 6.08268229,2.47884115 6.1875,2.50878906 C6.546875,2.61360677 6.77522786,2.75960286 6.87255859,2.94677734 C6.96988932,3.13395182 7.01855469,3.32486979 7.01855469,3.51953125 C7.01855469,3.69921875 6.99983724,3.92008464 6.96240234,4.18212891 C6.92496745,4.44417318 6.86132813,4.73990885 6.77148438,5.06933594 L6.77148438,5.06933594 L0.0556640625,29.8886719 C-0.0491536458,30.2929688 0.542317708,30.8320312 1.83007813,31.5058594 C3.11783854,32.1946615 4.5328776,32.5390625 6.07519531,32.5390625 Z M6.29980469,31.4833984 C5.49121094,31.4833984 4.89973958,31.3074544 4.52539063,30.9555664 C4.15104167,30.6036784 3.96386719,30.1357422 3.96386719,29.5517578 C3.96386719,27.1110026 4.90722656,24.0413411 6.79394531,20.3427734 C8.96516927,16.0901693 11.2412109,13.9638672 13.6220703,13.9638672 C14.5504557,13.9638672 15.3216146,14.3120117 15.9355469,15.0083008 C16.5494792,15.7045898 16.8564453,16.6367188 16.8564453,17.8046875 C16.8564453,20.3802083 15.8157552,23.2177734 13.734375,26.3173828 C11.4283854,29.7613932 8.95019531,31.4833984 6.29980469,31.4833984 Z" id="b" fill="#000000"></path>
                <path d="M21.8232422,40.8105469 C22.7802734,40.8105469 23.9833984,39.9856771 25.4326172,38.3359375 C26.3440755,37.2877604 27.4332682,35.797526 28.7001953,33.8652344 C29.7119141,32.3157552 30.6279297,30.7161458 31.4482422,29.0664062 C32.5146484,26.90625 33.0478516,25.3385417 33.0478516,24.3632812 C33.0478516,23.7161458 32.9065755,23.258138 32.6240234,22.9892578 C32.3414714,22.7203776 31.9723307,22.5859375 31.5166016,22.5859375 C31.1520182,22.5859375 30.8785807,22.6816406 30.6962891,22.8730469 C30.5139974,23.0644531 30.4228516,23.3014323 30.4228516,23.5839844 C30.4228516,23.921224 30.5208333,24.1901042 30.7167969,24.390625 C30.9127604,24.5911458 31.0836589,24.7278646 31.2294922,24.8007812 L31.2294922,24.8007812 L31.4619141,24.9238281 C31.6624349,25.0332031 31.7900391,25.1630859 31.8447266,25.3134766 C31.8994141,25.4638672 31.9267578,25.6165365 31.9267578,25.7714844 C31.9267578,26.4459635 31.4892578,27.6263021 30.6142578,29.3125 C30.1676432,30.1692708 29.4658203,31.3997396 28.5087891,33.0039062 L28.5087891,33.0039062 L27.9619141,29.75 C27.8160807,28.9023438 27.4514974,27.5442708 26.8681641,25.6757812 C26.2210286,23.5976562 25.7835286,22.5722656 25.5556641,22.5996094 L25.5556641,22.5996094 L25.2685547,22.6269531 L21.5361328,23.3378906 L21.5361328,23.7890625 C21.8551432,23.7526042 22.0807292,23.7275391 22.2128906,23.7138672 C22.3450521,23.7001953 22.4384766,23.6933594 22.4931641,23.6933594 C23.2132161,23.6933594 23.7578125,23.985026 24.1269531,24.5683594 C24.4960938,25.1516927 24.9039714,26.2636719 25.3505859,27.9042969 C25.6695964,29.0709635 26,30.4016927 26.3417969,31.8964844 C26.6835938,33.391276 26.8544922,34.3938802 26.8544922,34.9042969 C26.8544922,35.4420573 26.360026,36.3011068 25.3710938,37.4814453 C24.3821615,38.6617839 23.664388,39.2519531 23.2177734,39.2519531 C23.1357422,39.2519531 23.0605469,39.2405599 22.9921875,39.2177734 C22.9238281,39.194987 22.8623047,39.1608073 22.8076172,39.1152344 L22.8076172,39.1152344 L22.6162109,38.9785156 C22.4248047,38.8144531 22.242513,38.6891276 22.0693359,38.6025391 C21.8961589,38.5159505 21.695638,38.4726562 21.4677734,38.4726562 C21.1214193,38.4726562 20.8570964,38.577474 20.6748047,38.7871094 C20.492513,38.9967448 20.4013672,39.2473958 20.4013672,39.5390625 C20.4013672,39.9309896 20.5449219,40.2408854 20.8320312,40.46875 C21.1191406,40.6966146 21.4495443,40.8105469 21.8232422,40.8105469 Z" id="y" fill="#00DB00"></path>
            </g>
        </g>
    </g>
</svg>