<?xml version="1.0" encoding="UTF-8"?>
<svg width="36px" height="32px" viewBox="0 0 36 32" version="1.1" xmlns="http://www.w3.org/2000/svg" xmlns:xlink="http://www.w3.org/1999/xlink">
    <title>MLOrientationRect</title>
    <g id="MLOrientationRect" stroke="none" stroke-width="1" fill="none" fill-rule="evenodd">
        <rect id="Rectangle" fill-opacity="0.8" fill="#232323" x="0" y="0" width="32" height="32" rx="8"></rect>
        <path d="M21.2234475,27 C22.9042368,27 24,25.9604863 24,24.3647416 L24,8.6443769 C24,7.03951368 22.9042368,6 21.2234475,6 L10.7765525,6 C9.0957632,6 8,7.03951368 8,8.6443769 L8,24.3647416 C8,25.9604863 9.0957632,27 10.7765525,27 L21.2234475,27 Z M20.9634359,25.1854103 L11.0365641,25.1854103 C10.2751016,25.1854103 9.84793964,24.775076 9.84793964,24.0638298 L9.84793964,8.93617021 C9.84793964,8.22492401 10.2751016,7.82370821 11.0365641,7.82370821 L20.9634359,7.82370821 C21.7248984,7.82370821 22.1520604,8.22492401 22.1520604,8.93617021 L22.1520604,24.0638298 C22.1520604,24.775076 21.7248984,25.1854103 20.9634359,25.1854103 Z M18.7347649,24.4194529 C19.0133488,24.4194529 19.2083575,24.2370821 19.2083575,23.9635258 C19.2083575,23.6808511 19.0133488,23.4984802 18.7347649,23.4984802 L13.2745212,23.4984802 C13.0052234,23.4984802 12.8009286,23.6808511 12.8009286,23.9635258 C12.8009286,24.2370821 13.0052234,24.4194529 13.2745212,24.4194529 L18.7347649,24.4194529 Z" id="􀟠" fill="#FFFFFF" fill-rule="nonzero" transform="translate(16.000000, 16.500000) rotate(-90.000000) translate(-16.000000, -16.500000) "></path>
    </g>
</svg>