<?xml version="1.0" encoding="UTF-8"?>
<svg width="46px" height="22px" viewBox="0 0 46 22" version="1.1" xmlns="http://www.w3.org/2000/svg" xmlns:xlink="http://www.w3.org/1999/xlink">
    <title>QuestionMark</title>
    <g id="QuestionMark" stroke="none" stroke-width="1" fill="none" fill-rule="evenodd">
        <path d="M22.9951667,21 C28.4760754,21 33,16.4738878 33,11 C33,5.52611219 28.4664089,1 22.9855002,1 C17.5142581,1 13,5.52611219 13,11 C13,16.4738878 17.5239246,21 22.9951667,21 Z M22.7631706,12.9922631 C22.1348478,12.9922631 21.7868536,12.7021277 21.7868536,12.1218569 L21.7868536,12.0154739 C21.7868536,11.106383 22.3088449,10.5938104 23.0241663,10.0909091 C23.8748188,9.50096712 24.2904785,9.18181818 24.2904785,8.56286267 C24.2904785,7.89555126 23.7781537,7.45067698 22.9855002,7.45067698 C22.4055099,7.45067698 21.9801837,7.74081238 21.661189,8.23404255 C21.3518608,8.58220503 21.2068632,8.88201161 20.6268729,8.88201161 C20.1532141,8.88201161 19.7665539,8.57253385 19.7665539,8.08897485 C19.7665539,7.89555126 19.8052199,7.72147002 19.8728855,7.54738878 C20.1918801,6.59961315 21.3518608,5.82591876 23.0821653,5.82591876 C24.8801353,5.82591876 26.3977767,6.78336557 26.3977767,8.46615087 C26.3977767,9.62669246 25.7597873,10.2069632 24.7544708,10.8549323 C24.1164814,11.270793 23.7491542,11.6189555 23.7201547,12.1411992 C23.7201547,12.1702128 23.7104882,12.2185687 23.7104882,12.2572534 C23.6814886,12.6731141 23.3238279,12.9922631 22.7631706,12.9922631 Z M22.7535041,16.0870406 C22.0961817,16.0870406 21.5548574,15.6131528 21.5548574,14.9748549 C21.5548574,14.3365571 22.0865152,13.8626692 22.7535041,13.8626692 C23.4108265,13.8626692 23.9424843,14.3365571 23.9424843,14.9748549 C23.9424843,15.622824 23.40116,16.0870406 22.7535041,16.0870406 Z" id="ô€" fill="#17A736" fill-rule="nonzero"></path>
    </g>
</svg>