<?xml version="1.0" encoding="UTF-8"?>
<svg width="16px" height="13px" viewBox="0 0 16 13" version="1.1" xmlns="http://www.w3.org/2000/svg" xmlns:xlink="http://www.w3.org/1999/xlink">
    <title>QuestionMark</title>
    <g id="QuestionMark" stroke="none" stroke-width="1" fill="none" fill-rule="evenodd">
        <path d="M7.99758337,11 C10.7380377,11 13,8.73694391 13,6 C13,3.26305609 10.7332044,1 7.99275012,1 C5.25712905,1 3,3.26305609 3,6 C3,8.73694391 5.2619623,11 7.99758337,11 Z M7.88158531,6.99613153 C7.56742388,6.99613153 7.39342678,6.85106383 7.39342678,6.56092843 L7.39342678,6.50773694 C7.39342678,6.05319149 7.65442243,5.79690522 8.01208313,5.54545455 C8.43740938,5.25048356 8.64523925,5.09090909 8.64523925,4.78143133 C8.64523925,4.44777563 8.38907685,4.22533849 7.99275012,4.22533849 C7.70275495,4.22533849 7.49009183,4.37040619 7.33059449,4.61702128 C7.1759304,4.79110251 7.10343161,4.9410058 6.81343644,4.9410058 C6.57660706,4.9410058 6.38327695,4.78626692 6.38327695,4.54448743 C6.38327695,4.44777563 6.40260996,4.36073501 6.43644273,4.27369439 C6.59594007,3.79980658 7.1759304,3.41295938 8.04108265,3.41295938 C8.94006767,3.41295938 9.69888835,3.89168279 9.69888835,4.73307544 C9.69888835,5.31334623 9.37989367,5.60348162 8.87723538,5.92746615 C8.5582407,6.13539652 8.37457709,6.30947776 8.36007733,6.57059961 C8.36007733,6.58510638 8.35524408,6.60928433 8.35524408,6.62862669 C8.34074432,6.83655706 8.16191397,6.99613153 7.88158531,6.99613153 Z M7.87675205,8.54352031 C7.54809087,8.54352031 7.27742871,8.3065764 7.27742871,7.98742747 C7.27742871,7.66827853 7.54325761,7.43133462 7.87675205,7.43133462 C8.20541324,7.43133462 8.47124215,7.66827853 8.47124215,7.98742747 C8.47124215,8.31141199 8.20057999,8.54352031 7.87675205,8.54352031 Z" id="ô€" fill="#17A736" fill-rule="nonzero"></path>
    </g>
</svg>