<?xml version="1.0" encoding="UTF-8"?>
<svg width="500px" height="200px" viewBox="0 0 500 200" version="1.1" xmlns="http://www.w3.org/2000/svg" xmlns:xlink="http://www.w3.org/1999/xlink">
    <title>AngleDiagram</title>
    <g id="AngleDiagram" stroke="none" stroke-width="1" fill="none" fill-rule="evenodd">
        <polygon id="Rectangle" fill-opacity="0.5" fill="#F2F2F2" transform="translate(136.806996, 25.768307) rotate(-27.000000) translate(-136.806996, -25.768307) " points="-168.938064 121.64453 376.877677 197.005163 442.552055 68.1119381 23.3767488 -145.468548"></polygon>
        <polygon id="Rectangle" fill-opacity="0.5" fill="#BDBDBD" transform="translate(281.243449, 242.137721) rotate(-27.000000) translate(-281.243449, -242.137721) " points="-54.9657742 79.6546072 491.124799 154.284321 617.452673 404.620836 89.4526728 404.620836"></polygon>
        <path d="M65.9824219,87.1022135 C57.7115092,87.1022135 45.15625,102.228516 47.578125,104.430664 C50,106.632813 51.5014648,105.829102 61.6166992,100 C70.17264,95.0694719 76.3554688,99.3759766 74.7719727,106.632812 C73.1884766,113.889648 40.0742188,131.388672 34.140625,131.388672 C30.1848958,131.388672 18.8046875,142.962933 7.10542736e-14,166.111456 L-36.0683594,111.949367 C-23.9550781,115.983122 -14.9153646,118 -8.94921875,118 C3.55271368e-14,118 2.3828125,118.178839 15.9433594,109.589419 C29.5039063,101 19.0703125,67.6132812 50,53.0673828" id="Path-4" stroke="#1F8400" stroke-width="2" fill="#87D270" stroke-linecap="round" stroke-linejoin="round"></path>
        <polygon id="Rectangle" fill-opacity="0.5" fill="#DDDDDD" transform="translate(575.035100, 73.961484) rotate(-27.000000) translate(-575.035100, -73.961484) " points="502.072735 -105.720055 446.520926 3.30650886 572.848799 253.643024 703.549274 -3.06263064"></polygon>
        <path d="M165.859375,65 C184.543403,73.2894471 191.755208,88.0242561 187.494792,109.204427" id="Path-3" stroke="#FF8F00" stroke-width="6" stroke-linecap="round"></path>
        <path d="M165.859375,65 C184.379887,74.944829 191.509934,90.507329 187.249518,111.6875 C173.683328,111.312283 143.101783,107.41645 95.5048828,100 L165.859375,65 Z" id="Path-3" fill-opacity="0.3" fill="#FF8F00"></path>
        <line x1="89" y1="101" x2="235" y2="29" id="Line" stroke="#D6AD18" stroke-width="10" stroke-linecap="round"></line>
        <line x1="89" y1="101" x2="387" y2="135" id="Line" stroke="#FFC800" stroke-width="10" stroke-linecap="round"></line>
        <path d="M73.1554175,29.5777088 L117.155418,51.5777088 C122.575962,54.287981 126,59.8281909 126,65.8885438 L126,150.111456 C126,158.948012 118.836556,166.111456 110,166.111456 C107.516078,166.111456 105.066269,165.533135 102.844582,164.422291 L58.8445825,142.422291 C53.424038,139.712019 50,134.171809 50,128.111456 L50,43.8885438 C50,35.0519878 57.163444,27.8885438 66,27.8885438 C68.4839215,27.8885438 70.9337306,28.4668653 73.1554175,29.5777088 Z" id="Rectangle"></path>
        <path d="M73.1554175,29.5777088 L117.155418,51.5777088 C122.575962,54.287981 126,59.8281909 126,65.8885438 L126,150.111456 C126,158.948012 118.836556,166.111456 110,166.111456 C107.516078,166.111456 105.066269,165.533135 102.844582,164.422291 L58.8445825,142.422291 C53.424038,139.712019 50,134.171809 50,128.111456 L50,43.8885438 C50,35.0519878 57.163444,27.8885438 66,27.8885438 C68.4839215,27.8885438 70.9337306,28.4668653 73.1554175,29.5777088 Z" id="Rectangle" fill-opacity="0.2" fill="#343434"></path>
        <path d="M73.1554175,29.5777088 L116.233594,51.1167969 L116.233594,51.1167969 L50,126.113932 L50,43.8885438 C50,35.0519878 57.163444,27.8885438 66,27.8885438 C68.4839215,27.8885438 70.9337306,28.4668653 73.1554175,29.5777088 Z" id="Rectangle" fill="#C7C7C7"></path>
        <g id="Group" transform="translate(352.000000, 92.408854)">
            <polygon id="Rectangle-Copy" fill="#FF0000" points="-2.27373675e-13 13.5911458 32 33.5405129 32 77.5911458 -2.27373675e-13 57.6417787"></polygon>
            <polygon id="Rectangle-Copy-3" fill="#FF2E2E" points="38.3554688 -1.42108547e-14 70 19.5405129 32 33.5911458 -2.27373675e-13 13.6417787"></polygon>
            <polygon id="Rectangle-Copy-2" fill="#821414" transform="translate(51.000000, 48.565829) scale(-1, 1) translate(-51.000000, -48.565829) " points="32 19.5405129 70 33.5405129 70 77.5911458 32 63.5911458"></polygon>
        </g>
        <polygon id="Rectangle" fill="#D6AD18" transform="translate(230.054688, 31.240625) rotate(-169.000000) translate(-230.054688, -31.240625) " points="216.054688 17.240625 230.054688 30.9718942 244.054688 45.240625 216.054688 45.240625"></polygon>
        <path d="M210.660156,96.4453125 C214.394531,96.4453125 217.550781,95.1875 220.128906,92.671875 C222.597656,90.28125 223.832031,87.4921875 223.832031,84.3046875 C223.832031,82.0546875 223.230469,80.25 222.027344,78.890625 C221.371094,78.140625 220.457031,77.4921875 219.285156,76.9453125 L219.285156,76.9453125 L219.285156,76.78125 C221.722656,75.875 223.441406,75.0234375 224.441406,74.2265625 C225.972656,73.0234375 226.738281,71.4921875 226.738281,69.6328125 C226.738281,67.8671875 226.097656,66.4335938 224.816406,65.3320312 C223.535156,64.2304688 221.871094,63.6796875 219.824219,63.6796875 C218.308594,63.6796875 216.882812,64.0703125 215.546875,64.8515625 C214.210938,65.6328125 213.082031,66.875 212.160156,68.578125 L212.160156,68.578125 L212.957031,68.8359375 C213.691406,67.8046875 214.519531,67.03125 215.441406,66.515625 C216.363281,66 217.300781,65.7421875 218.253906,65.7421875 C219.894531,65.7421875 221.027344,66.2070312 221.652344,67.1367188 C222.277344,68.0664062 222.589844,69.0625 222.589844,70.125 C222.589844,71.6875 221.71875,73.2382812 219.976562,74.7773438 C218.234375,76.3164062 215.261719,77.375 211.058594,77.953125 L211.058594,77.953125 L211.105469,78.7265625 C211.402344,78.7109375 211.59375,78.6992188 211.679688,78.6914062 C211.765625,78.6835938 211.871094,78.6796875 211.996094,78.6796875 C214.527344,78.6796875 216.488281,79.359375 217.878906,80.71875 C219.269531,82.078125 219.964844,84.0703125 219.964844,86.6953125 C219.964844,89.0078125 219.339844,90.8945312 218.089844,92.3554688 C216.839844,93.8164062 215.425781,94.546875 213.847656,94.546875 C213.253906,94.546875 212.636719,94.3984375 211.996094,94.1015625 C211.636719,93.9296875 211.160156,93.640625 210.566406,93.234375 L210.566406,93.234375 L209.441406,92.4609375 C209.066406,92.2109375 208.699219,92.0195312 208.339844,91.8867188 C207.980469,91.7539062 207.574219,91.6875 207.121094,91.6875 C206.433594,91.6875 205.925781,91.8671875 205.597656,92.2265625 C205.269531,92.5859375 205.105469,92.984375 205.105469,93.421875 C205.105469,94.671875 205.847656,95.5390625 207.332031,96.0234375 C208.191406,96.3046875 209.300781,96.4453125 210.660156,96.4453125 Z M237.660156,96.28125 C241.394531,96.28125 244.746094,94.15625 247.714844,89.90625 C250.730469,85.5625 252.238281,80.53125 252.238281,74.8125 C252.238281,72.21875 251.808594,69.9453125 250.949219,67.9921875 C249.621094,65.0078125 247.457031,63.515625 244.457031,63.515625 C240.738281,63.515625 237.363281,65.8984375 234.332031,70.6640625 C231.378906,75.3203125 229.902344,80.375 229.902344,85.828125 C229.902344,89.09375 230.652344,91.6523438 232.152344,93.5039062 C233.652344,95.3554688 235.488281,96.28125 237.660156,96.28125 Z M237.847656,95.0625 C236.097656,95.0625 234.894531,94.09375 234.238281,92.15625 C233.894531,91.15625 233.722656,89.9140625 233.722656,88.4296875 C233.722656,84.9140625 234.566406,80.515625 236.253906,75.234375 C238.472656,68.328125 241.183594,64.875 244.386719,64.875 C246.121094,64.875 247.300781,65.8125 247.925781,67.6875 C248.269531,68.671875 248.441406,69.96875 248.441406,71.578125 C248.441406,76.21875 247.496094,81.078125 245.605469,86.15625 C243.417969,92.09375 240.832031,95.0625 237.847656,95.0625 Z M265.550781,77.1796875 C267.441406,77.1796875 269.054688,76.5117188 270.390625,75.1757812 C271.726562,73.8398438 272.394531,72.2265625 272.394531,70.3359375 C272.394531,68.4453125 271.726562,66.8359375 270.390625,65.5078125 C269.054688,64.1796875 267.441406,63.515625 265.550781,63.515625 C263.660156,63.515625 262.050781,64.1796875 260.722656,65.5078125 C259.394531,66.8359375 258.730469,68.4453125 258.730469,70.3359375 C258.730469,72.2265625 259.394531,73.8398438 260.722656,75.1757812 C262.050781,76.5117188 263.660156,77.1796875 265.550781,77.1796875 Z M265.550781,75 C264.269531,75 263.171875,74.5429688 262.257812,73.6289062 C261.34375,72.7148438 260.886719,71.6171875 260.886719,70.3359375 C260.886719,69.0390625 261.34375,67.9375 262.257812,67.03125 C263.171875,66.125 264.269531,65.671875 265.550781,65.671875 C266.847656,65.671875 267.949219,66.125 268.855469,67.03125 C269.761719,67.9375 270.214844,69.0390625 270.214844,70.3359375 C270.214844,71.6171875 269.761719,72.7148438 268.855469,73.6289062 C267.949219,74.5429688 266.847656,75 265.550781,75 Z" id="30°" fill="#FF8F00" fill-rule="nonzero"></path>
        <path d="M201.8125,152 L201.8125,151.53125 C200.739583,151.5 200.015625,151.427083 199.640625,151.3125 C199.265625,151.197917 199.078125,150.927083 199.078125,150.5 C199.078125,150.416667 199.085938,150.333333 199.101562,150.25 C199.117188,150.166667 199.135417,150.083333 199.15625,150 L199.15625,150 L204.40625,130.859375 C204.427083,130.796875 204.440104,130.734375 204.445312,130.671875 C204.450521,130.609375 204.453125,130.546875 204.453125,130.484375 L204.453125,130.484375 L204.265625,130.375 L203.96875,130.421875 L203.484375,130.53125 C202.953125,130.645833 202.059896,130.828125 200.804688,131.078125 C199.549479,131.328125 198.776042,131.479167 198.484375,131.53125 L198.484375,131.53125 L198.078125,131.59375 L198.078125,132.078125 L199.609375,132 C200.130208,132 200.510417,132.0625 200.75,132.1875 C200.989583,132.3125 201.109375,132.557292 201.109375,132.921875 C201.109375,133.067708 201.091146,133.231771 201.054688,133.414062 C201.018229,133.596354 200.963542,133.817708 200.890625,134.078125 L200.890625,134.078125 L196.484375,149.828125 C196.328125,150.380208 196.041667,150.768229 195.625,150.992188 C195.208333,151.216146 194.651042,151.369792 193.953125,151.453125 L193.953125,151.453125 L192.890625,151.46875 L192.890625,152 L201.8125,152 Z M219.078125,152 L220.671875,147.78125 L220.15625,147.5625 C219.78125,148.333333 219.377604,148.859375 218.945312,149.140625 C218.513021,149.421875 217.854167,149.5625 216.96875,149.5625 L216.96875,149.5625 L210.890625,149.5625 L210.890625,149.421875 L217.046875,143.265625 C218.776042,141.536458 220.002604,140.145833 220.726562,139.09375 C221.450521,138.041667 221.8125,136.921875 221.8125,135.734375 C221.8125,134.369792 221.341146,133.130208 220.398438,132.015625 C219.455729,130.901042 218.166667,130.34375 216.53125,130.34375 C215.520833,130.34375 214.567708,130.557292 213.671875,130.984375 C211.953125,131.817708 210.692708,133.317708 209.890625,135.484375 L209.890625,135.484375 L210.5625,135.71875 C211.041667,134.916667 211.515625,134.302083 211.984375,133.875 C212.859375,133.09375 213.880208,132.703125 215.046875,132.703125 C216.286458,132.703125 217.263021,133.088542 217.976562,133.859375 C218.690104,134.630208 219.046875,135.567708 219.046875,136.671875 C219.046875,137.859375 218.4375,139.307292 217.21875,141.015625 C216.53125,141.984375 215.609375,143.078125 214.453125,144.296875 L214.453125,144.296875 L207.703125,151.453125 L207.703125,152 L219.078125,152 Z M230.703125,152.234375 C232.755208,152.234375 234.421875,151.627604 235.703125,150.414062 C236.984375,149.200521 237.625,147.786458 237.625,146.171875 C237.625,145.067708 237.307292,144.026042 236.671875,143.046875 C236.067708,142.067708 235.130208,140.979167 233.859375,139.78125 C235.223958,139.354167 236.28125,138.890625 237.03125,138.390625 C238.416667,137.473958 239.109375,136.322917 239.109375,134.9375 C239.109375,133.510417 238.53125,132.393229 237.375,131.585938 C236.21875,130.778646 234.921875,130.375 233.484375,130.375 C231.942708,130.375 230.619792,130.817708 229.515625,131.703125 C228.328125,132.692708 227.734375,133.869792 227.734375,135.234375 C227.734375,136.057292 227.960938,136.888021 228.414062,137.726562 C228.867188,138.565104 229.567708,139.484375 230.515625,140.484375 C228.994792,140.963542 227.739583,141.583333 226.75,142.34375 C225.135417,143.59375 224.328125,145.140625 224.328125,146.984375 C224.328125,148.401042 224.888021,149.630208 226.007812,150.671875 C227.127604,151.713542 228.692708,152.234375 230.703125,152.234375 Z M233.296875,139.234375 C232.338542,138.453125 231.59375,137.666667 231.0625,136.875 C230.53125,136.083333 230.265625,135.255208 230.265625,134.390625 C230.265625,133.536458 230.546875,132.783854 231.109375,132.132812 C231.671875,131.481771 232.494792,131.15625 233.578125,131.15625 C234.671875,131.15625 235.505208,131.528646 236.078125,132.273438 C236.651042,133.018229 236.9375,133.869792 236.9375,134.828125 C236.9375,136.005208 236.572917,136.953125 235.84375,137.671875 C235.395833,138.109375 234.546875,138.630208 233.296875,139.234375 Z M230.90625,151.484375 C229.666667,151.484375 228.619792,151.101562 227.765625,150.335938 C226.911458,149.570312 226.484375,148.395833 226.484375,146.8125 C226.484375,145.302083 226.960938,144.052083 227.914062,143.0625 C228.867188,142.072917 229.942708,141.401042 231.140625,141.046875 C231.661458,141.484375 232.179688,141.96875 232.695312,142.5 C233.210938,143.03125 233.682292,143.557292 234.109375,144.078125 C234.401042,144.484375 234.651042,144.9375 234.859375,145.4375 C235.067708,145.9375 235.171875,146.494792 235.171875,147.109375 C235.171875,148.505208 234.726562,149.583333 233.835938,150.34375 C232.945312,151.104167 231.96875,151.484375 230.90625,151.484375 Z M244.953125,152.375 C246.411458,152.375 247.739583,151.942708 248.9375,151.078125 C249.614583,150.578125 250.317708,149.864583 251.046875,148.9375 L251.046875,148.9375 L250.59375,148.59375 L250.484375,148.71875 C249.848958,149.4375 249.153646,150.028646 248.398438,150.492188 C247.643229,150.955729 246.864583,151.1875 246.0625,151.1875 C245.0625,151.1875 244.3125,150.854167 243.8125,150.1875 C243.3125,149.520833 243.0625,148.598958 243.0625,147.421875 C243.0625,145.328125 243.679688,143.328125 244.914062,141.421875 C246.148438,139.515625 247.604167,138.5625 249.28125,138.5625 C249.75,138.5625 250.091146,138.627604 250.304688,138.757812 C250.518229,138.888021 250.625,139.046875 250.625,139.234375 C250.625,139.328125 250.539062,139.53125 250.367188,139.84375 C250.195312,140.15625 250.109375,140.447917 250.109375,140.71875 C250.109375,141.072917 250.239583,141.369792 250.5,141.609375 C250.760417,141.848958 251.083333,141.96875 251.46875,141.96875 C251.864583,141.96875 252.208333,141.833333 252.5,141.5625 C252.791667,141.291667 252.9375,140.911458 252.9375,140.421875 C252.9375,139.880208 252.65625,139.322917 252.09375,138.75 C251.53125,138.177083 250.614583,137.890625 249.34375,137.890625 C247.125,137.890625 245.0625,138.880208 243.15625,140.859375 C241.229167,142.848958 240.265625,145.026042 240.265625,147.390625 C240.265625,148.932292 240.697917,150.148438 241.5625,151.039062 C242.427083,151.929688 243.557292,152.375 244.953125,152.375 Z M271.390625,152.34375 C272.130208,152.34375 272.880208,152.028646 273.640625,151.398438 C274.401042,150.768229 275.15625,149.921875 275.90625,148.859375 L275.90625,148.859375 L276.0625,148.640625 L275.578125,148.265625 C274.963542,149.015625 274.591146,149.46875 274.460938,149.625 C274.330729,149.78125 274.161458,149.963542 273.953125,150.171875 C273.734375,150.390625 273.554688,150.546875 273.414062,150.640625 C273.273438,150.734375 273.109375,150.78125 272.921875,150.78125 C272.723958,150.78125 272.588542,150.710938 272.515625,150.570312 C272.442708,150.429688 272.427083,150.291667 272.46875,150.15625 L272.46875,150.15625 L274.765625,141.640625 C274.963542,140.755208 275.0625,140.197917 275.0625,139.96875 C275.0625,139.229167 274.859375,138.692708 274.453125,138.359375 C274.046875,138.026042 273.598958,137.859375 273.109375,137.859375 C271.953125,137.859375 270.619792,138.697917 269.109375,140.375 C268.276042,141.302083 267.28125,142.651042 266.125,144.421875 C266.572917,143.026042 266.882812,142.013021 267.054688,141.382812 C267.226562,140.752604 267.3125,140.260417 267.3125,139.90625 C267.3125,139.114583 267.0625,138.546875 266.5625,138.203125 C266.239583,137.973958 265.869792,137.859375 265.453125,137.859375 C264.369792,137.859375 263.119792,138.619792 261.703125,140.140625 C260.671875,141.286458 259.578125,142.713542 258.421875,144.421875 L258.421875,144.421875 L260.25,137.96875 L260.125,137.859375 C257.770833,138.380208 256.067708,138.723958 255.015625,138.890625 L255.015625,138.890625 L255.015625,139.421875 C255.817708,139.390625 256.359375,139.416667 256.640625,139.5 C256.921875,139.583333 257.0625,139.828125 257.0625,140.234375 C257.0625,140.348958 257.052083,140.458333 257.03125,140.5625 C257.010417,140.666667 256.984375,140.776042 256.953125,140.890625 L256.953125,140.890625 L253.90625,152 L256.3125,152 C256.864583,150.239583 257.307292,148.890625 257.640625,147.953125 C258.192708,146.411458 258.770833,145.177083 259.375,144.25 C259.989583,143.302083 260.778646,142.28125 261.742188,141.1875 C262.705729,140.09375 263.515625,139.546875 264.171875,139.546875 C264.421875,139.546875 264.601562,139.617188 264.710938,139.757812 C264.820312,139.898438 264.875,140.09375 264.875,140.34375 C264.875,140.4375 264.867188,140.528646 264.851562,140.617188 C264.835938,140.705729 264.817708,140.796875 264.796875,140.890625 L264.796875,140.890625 L261.828125,152 L264.25,152 C264.927083,149.479167 265.393229,147.846354 265.648438,147.101562 C265.903646,146.356771 266.34375,145.432292 266.96875,144.328125 C267.65625,143.244792 268.463542,142.177083 269.390625,141.125 C270.317708,140.072917 271.130208,139.546875 271.828125,139.546875 C272.026042,139.546875 272.190104,139.614583 272.320312,139.75 C272.450521,139.885417 272.515625,140.078125 272.515625,140.328125 C272.515625,140.411458 272.507812,140.494792 272.492188,140.578125 C272.476562,140.661458 272.453125,140.765625 272.421875,140.890625 L272.421875,140.890625 L270.171875,149.640625 C270.119792,149.859375 270.080729,150.057292 270.054688,150.234375 C270.028646,150.411458 270.015625,150.578125 270.015625,150.734375 C270.015625,151.369792 270.192708,151.822917 270.546875,152.09375 C270.776042,152.260417 271.057292,152.34375 271.390625,152.34375 Z" id="128cm" fill="#FFC800" fill-rule="nonzero" transform="translate(234.476562, 141.359375) rotate(6.000000) translate(-234.476562, -141.359375) "></path>
        <path d="M66,28.8885438 C68.3286764,28.8885438 70.6253724,29.4307202 72.7082039,30.472136 L72.7082039,30.472136 L116.708204,52.472136 C119.249084,53.7425761 121.322033,55.6762828 122.759762,58.0025771 C124.197491,60.3288715 125,63.0477534 125,65.8885438 L125,65.8885438 L125,150.111456 C125,154.253592 123.321068,158.003592 120.606602,160.718058 C117.892136,163.432524 114.142136,165.111456 110,165.111456 C107.671324,165.111456 105.374628,164.56928 103.291796,163.527864 L103.291796,163.527864 L59.2917961,141.527864 C56.7509159,140.257424 54.6779668,138.323717 53.2402379,135.997423 C51.8025089,133.671129 51,130.952247 51,128.111456 L51,128.111456 L51,43.8885438 C51,39.7464082 52.6789322,35.9964082 55.3933983,33.2819421 C58.1078644,30.567476 61.8578644,28.8885438 66,28.8885438 Z" id="Rectangle" stroke="#565656" stroke-width="2"></path>
        <path d="M48.762264,99.9663152 C47.4281195,102.08171 46.8788816,103.79486 47.578125,104.430664 C50,106.632813 51.5014648,105.829102 61.6166992,100 C70.17264,95.0694719 76.3554688,99.3759766 74.7719727,106.632812 C73.1884766,113.889648 40.0742188,131.388672 34.140625,131.388672 C30.1848958,131.388672 18.8046875,142.962933 1.13686838e-13,166.111456 L-36.0683594,111.949367 C-23.9550781,115.983122 -14.9153646,118 -8.94921875,118 C7.81597009e-14,118 2.3828125,118.178839 15.9433594,109.589419 C25.8164704,103.335668 22.9704096,83.936994 32.6298396,68.2355073" id="Path-4" stroke="#1F8400" stroke-width="2" fill="#87D270" stroke-linecap="round" stroke-linejoin="round"></path>
    </g>
</svg>