<?xml version="1.0" encoding="UTF-8"?>
<svg width="16px" height="16px" viewBox="0 0 16 16" version="1.1" xmlns="http://www.w3.org/2000/svg" xmlns:xlink="http://www.w3.org/1999/xlink">
    <title>QuestionMark</title>
    <g id="QuestionMark" stroke="none" stroke-width="1" fill="none" fill-rule="evenodd">
        <path d="M7.9961334,16 C12.3808603,16 16,12.3791103 16,8 C16,3.62088975 12.3731271,0 7.98840019,0 C3.61140648,0 0,3.62088975 0,8 C0,12.3791103 3.61913968,16 7.9961334,16 Z M7.81053649,9.59381044 C7.3078782,9.59381044 7.02948284,9.36170213 7.02948284,8.89748549 L7.02948284,8.81237911 C7.02948284,8.08510638 7.44707588,7.67504836 8.01933301,7.27272727 C8.699855,6.80077369 9.03238279,6.54545455 9.03238279,6.05029014 C9.03238279,5.51644101 8.62252296,5.16054159 7.98840019,5.16054159 C7.52440793,5.16054159 7.18414693,5.3926499 6.92895118,5.78723404 C6.68148864,6.06576402 6.56549058,6.30560928 6.10149831,6.30560928 C5.72257129,6.30560928 5.41324311,6.05802708 5.41324311,5.67117988 C5.41324311,5.51644101 5.44417593,5.37717602 5.49830836,5.23791103 C5.75350411,4.47969052 6.68148864,3.86073501 8.06573224,3.86073501 C9.50410826,3.86073501 10.7182214,4.62669246 10.7182214,5.9729207 C10.7182214,6.90135397 10.2078299,7.3655706 9.40357661,7.88394584 C8.89318511,8.21663443 8.59932334,8.49516441 8.57612373,8.91295938 C8.57612373,8.93617021 8.56839053,8.97485493 8.56839053,9.00580271 C8.54519091,9.3384913 8.25906235,9.59381044 7.81053649,9.59381044 Z M7.80280329,12.0696325 C7.27694538,12.0696325 6.84388594,11.6905222 6.84388594,11.1798839 C6.84388594,10.6692456 7.26921218,10.2901354 7.80280329,10.2901354 C8.32866119,10.2901354 8.75398743,10.6692456 8.75398743,11.1798839 C8.75398743,11.6982592 8.32092798,12.0696325 7.80280329,12.0696325 Z" id="ô€" fill="#17A736" fill-rule="nonzero"></path>
    </g>
</svg>